<svg width="30" height="30" viewBox="0 0 30 30" fill="none" xmlns="http://www.w3.org/2000/svg">
<circle cx="15" cy="15" r="15" fill="#FF3E3E"/>
<path d="M9.70304 15.0138L7.60737 15.3833L7.40656 16.4098L5.51573 16.7432L6.95411 10.8032L8.78191 10.4809L12.1652 15.5707L10.2428 15.9097L9.70304 15.0138ZM8.95478 13.7648L8.17454 12.4726L7.8833 13.9537L8.95478 13.7648ZM16.0266 11.9654L18.1576 14.5141L16.0619 14.8836L14.6547 13.0765L14.1348 13.1682L14.4862 15.1615L12.6269 15.4893L11.6545 9.9744L13.5138 9.64655L13.8764 11.7028L14.4436 11.6028L15.2549 9.33954L17.193 8.9978L16.0266 11.9654ZM24.4198 11.9233L24.8643 14.4444L23.1626 14.7445L22.9722 13.6652L18.5445 14.4459L17.5721 8.93095L19.3999 8.60866L20.1181 12.6818L21.8672 12.3734L21.1489 8.30026L22.9767 7.97797L23.695 12.0511L24.4198 11.9233ZM9.92108 18.4035L11.7489 18.0812L12.2545 20.9489L13.6476 17.7464L15.3966 17.438L16.369 22.9529L14.5412 23.2752L14.037 20.4153L12.6504 23.6086L10.8935 23.9184L9.92108 18.4035ZM21.2136 16.4123L22.186 21.9272L20.3582 22.2495L20.1276 20.9417L19.6312 21.0292L19.0188 22.4857L17.0729 22.8288L17.8823 21.0614C17.4955 20.9563 17.178 20.7686 16.93 20.4982C16.6863 20.2216 16.5274 19.8733 16.4533 19.4531C16.3764 19.0172 16.4121 18.6209 16.5605 18.2644C16.7141 17.907 16.9673 17.6078 17.3202 17.3669C17.673 17.1259 18.1094 16.9596 18.6294 16.8679L21.2136 16.4123ZM18.9138 18.2963C18.4411 18.3796 18.2441 18.6445 18.3228 19.091C18.4052 19.5584 18.6828 19.7505 19.1555 19.6671L19.8803 19.5393L19.6386 18.1685L18.9138 18.2963Z" fill="white"/>
</svg>
