<svg width="22" height="19" viewBox="0 0 22 19" fill="none" xmlns="http://www.w3.org/2000/svg">
<path d="M0.785714 3.41915H21.2143C21.6482 3.41915 22 3.07899 22 2.65934V0.759812C22 0.340158 21.6482 0 21.2143 0H0.785714C0.351754 0 0 0.340158 0 0.759812V2.65934C0 3.07899 0.351754 3.41915 0.785714 3.41915ZM0.785714 11.0173H21.2143C21.6482 11.0173 22 10.6771 22 10.2575V8.35793C22 7.93827 21.6482 7.59812 21.2143 7.59812H0.785714C0.351754 7.59812 0 7.93827 0 8.35793V10.2575C0 10.6771 0.351754 11.0173 0.785714 11.0173ZM0.785714 18.6154H21.2143C21.6482 18.6154 22 18.2752 22 17.8556V15.956C22 15.5364 21.6482 15.1962 21.2143 15.1962H0.785714C0.351754 15.1962 0 15.5364 0 15.956V17.8556C0 18.2752 0.351754 18.6154 0.785714 18.6154Z" fill="white"/>
</svg>
