<svg width="20" height="20" viewBox="0 0 20 20" fill="none" xmlns="http://www.w3.org/2000/svg">
<path d="M20 7.84103V8.52285C20 9.08769 19.6269 9.54558 19.1667 9.54558H18.8889L17.9822 17.3348C17.8649 18.3425 17.1617 19.091 16.3323 19.091H3.66771C2.8383 19.091 2.1351 18.3425 2.01778 17.3348L1.11111 9.54558H0.833333C0.37309 9.54558 0 9.08769 0 8.52285V7.84103C0 7.27619 0.37309 6.8183 0.833333 6.8183H3.17156L6.8792 0.561726C7.24014 -0.0473082 7.935 -0.18201 8.43132 0.260959C8.9276 0.703928 9.03733 1.55675 8.67639 2.16583L5.91934 6.8183H14.0807L11.3236 2.16579C10.9627 1.55675 11.0724 0.703885 11.5687 0.260916C12.0649 -0.182053 12.7599 -0.0473934 13.1208 0.561683L16.8284 6.8183H19.1667C19.6269 6.8183 20 7.27619 20 7.84103ZM10.8333 15.341V10.5683C10.8333 10.0035 10.4602 9.54558 10 9.54558C9.53976 9.54558 9.16667 10.0035 9.16667 10.5683V15.341C9.16667 15.9059 9.53976 16.3638 10 16.3638C10.4602 16.3638 10.8333 15.9059 10.8333 15.341ZM14.7222 15.341V10.5683C14.7222 10.0035 14.3491 9.54558 13.8889 9.54558C13.4286 9.54558 13.0556 10.0035 13.0556 10.5683V15.341C13.0556 15.9059 13.4286 16.3638 13.8889 16.3638C14.3491 16.3638 14.7222 15.9059 14.7222 15.341ZM6.94444 15.341V10.5683C6.94444 10.0035 6.57135 9.54558 6.11111 9.54558C5.65087 9.54558 5.27778 10.0035 5.27778 10.5683V15.341C5.27778 15.9059 5.65087 16.3638 6.11111 16.3638C6.57135 16.3638 6.94444 15.9059 6.94444 15.341Z" fill="white"/>
</svg>
