<svg width="30" height="30" viewBox="0 0 30 30" fill="none" xmlns="http://www.w3.org/2000/svg">
<circle cx="15" cy="15" r="15" fill="#0B8FFB"/>
<path d="M6.68137 22.543C6.68137 21.6843 6.82837 21.0473 7.12237 20.632C7.41637 20.212 7.8387 20.002 8.38937 20.002C8.97737 20.002 9.40903 20.2097 9.68437 20.625C9.9597 21.0357 10.0974 21.675 10.0974 22.543C10.0974 23.4063 9.94803 24.048 9.64937 24.468C9.35537 24.888 8.93303 25.098 8.38237 25.098C7.79903 25.098 7.3697 24.8787 7.09437 24.44C6.81903 23.9967 6.68137 23.3643 6.68137 22.543ZM7.59137 22.543C7.59137 23.1123 7.65203 23.5533 7.77337 23.866C7.89937 24.174 8.1047 24.328 8.38937 24.328C8.6647 24.328 8.86537 24.1857 8.99137 23.901C9.12203 23.6163 9.18737 23.1637 9.18737 22.543C9.18737 21.9783 9.1267 21.542 9.00537 21.234C8.88403 20.926 8.67637 20.772 8.38237 20.772C8.10237 20.772 7.89937 20.9167 7.77337 21.206C7.65203 21.4953 7.59137 21.941 7.59137 22.543ZM12.5426 21.5H13.2076L13.3126 21.92H13.3406C13.4619 21.7427 13.6042 21.612 13.7676 21.528C13.9356 21.444 14.1386 21.402 14.3766 21.402C14.8152 21.402 15.1442 21.542 15.3636 21.822C15.5829 22.0973 15.6926 22.543 15.6926 23.159C15.6926 23.4577 15.6576 23.7283 15.5876 23.971C15.5176 24.209 15.4126 24.412 15.2726 24.58C15.1372 24.748 14.9692 24.8763 14.7686 24.965C14.5726 25.0537 14.3462 25.098 14.0896 25.098C13.9449 25.098 13.8259 25.0863 13.7326 25.063C13.6392 25.0443 13.5459 25.0117 13.4526 24.965V26.4H12.5426V21.5ZM14.1036 22.172C13.9262 22.172 13.7862 22.2163 13.6836 22.305C13.5856 22.3937 13.5086 22.5267 13.4526 22.704V24.16C13.5179 24.2113 13.5879 24.2533 13.6626 24.286C13.7419 24.314 13.8446 24.328 13.9706 24.328C14.2319 24.328 14.4279 24.237 14.5586 24.055C14.6892 23.8683 14.7546 23.5627 14.7546 23.138C14.7546 22.83 14.7032 22.592 14.6006 22.424C14.4979 22.256 14.3322 22.172 14.1036 22.172ZM17.5148 23.467L17.6408 24.013H17.6828L17.7738 23.46L18.3058 21.5H19.2438L18.1798 24.657C18.0911 24.9183 18.0048 25.1563 17.9208 25.371C17.8415 25.5903 17.7528 25.7793 17.6548 25.938C17.5568 26.0967 17.4471 26.218 17.3258 26.302C17.2091 26.3907 17.0691 26.435 16.9058 26.435C16.6631 26.435 16.4695 26.3953 16.3248 26.316L16.4928 25.588C16.5628 25.616 16.6328 25.63 16.7028 25.63C16.8101 25.63 16.9128 25.5833 17.0108 25.49C17.1135 25.4013 17.1905 25.238 17.2418 25L15.7788 21.5H16.8708L17.5148 23.467ZM20.1786 22.158C20.3139 21.9527 20.4726 21.8057 20.6546 21.717C20.8412 21.6237 21.0652 21.577 21.3266 21.577C21.7512 21.577 22.0872 21.7077 22.3346 21.969C22.5866 22.2257 22.7126 22.627 22.7126 23.173C22.7126 23.803 22.5702 24.2813 22.2856 24.608C22.0009 24.9347 21.5996 25.098 21.0816 25.098C20.5402 25.098 20.1272 24.9183 19.8426 24.559C19.5579 24.1997 19.4156 23.6397 19.4156 22.879C19.4156 22.4777 19.4389 22.1347 19.4856 21.85C19.5322 21.5653 19.5976 21.325 19.6816 21.129C19.7702 20.933 19.8729 20.7767 19.9896 20.66C20.1109 20.5433 20.2439 20.4523 20.3886 20.387C20.5379 20.317 20.6966 20.268 20.8646 20.24C21.0326 20.212 21.2099 20.1887 21.3966 20.17C21.6392 20.1467 21.8469 20.1187 22.0196 20.086C22.1922 20.0487 22.3206 19.9903 22.4046 19.911L22.4396 20.723C22.3462 20.8023 22.2132 20.8583 22.0406 20.891C21.8679 20.919 21.6346 20.9447 21.3406 20.968C21.1632 20.9773 21.0069 20.9983 20.8716 21.031C20.7362 21.0637 20.6196 21.122 20.5216 21.206C20.4236 21.29 20.3442 21.409 20.2836 21.563C20.2276 21.7123 20.1856 21.9107 20.1576 22.158H20.1786ZM20.3536 23.292C20.3536 23.5907 20.4119 23.838 20.5286 24.034C20.6452 24.23 20.8249 24.328 21.0676 24.328C21.3196 24.328 21.4992 24.2393 21.6066 24.062C21.7186 23.8847 21.7746 23.628 21.7746 23.292C21.7746 22.9887 21.7232 22.7553 21.6206 22.592C21.5179 22.4287 21.3476 22.347 21.1096 22.347C20.8529 22.347 20.6616 22.431 20.5356 22.599C20.4142 22.767 20.3536 22.998 20.3536 23.292ZM23.17 24.538C23.17 24.3747 23.2213 24.2463 23.324 24.153C23.4266 24.055 23.562 24.006 23.73 24.006C23.9073 24.006 24.0473 24.055 24.15 24.153C24.2526 24.2463 24.304 24.3747 24.304 24.538C24.304 24.7013 24.2526 24.832 24.15 24.93C24.0473 25.028 23.9073 25.077 23.73 25.077C23.562 25.077 23.4266 25.028 23.324 24.93C23.2213 24.832 23.17 24.7013 23.17 24.538Z" fill="white"/>
<path d="M21.351 15.2366C20.8623 15.2366 20.3981 15.4331 20.0479 15.7885C19.6976 16.1481 19.5021 16.6165 19.5021 17.1183C19.5021 17.6201 19.6935 18.0884 20.0479 18.448C20.4022 18.8035 20.8623 19 21.351 19C22.3529 19 23.1674 18.1553 23.1674 17.1183C23.1674 16.0812 22.3529 15.2366 21.351 15.2366ZM21.351 18.1637C20.789 18.1637 20.3166 17.687 20.3166 17.1183C20.3166 16.5496 20.789 16.0729 21.351 16.0729C21.9049 16.0729 22.3529 16.5412 22.3529 17.1183C22.3529 17.6953 21.9049 18.1637 21.351 18.1637ZM21.8235 8.96834C21.7502 8.89725 21.6524 8.85962 21.5506 8.85962H19.4614C19.2374 8.85962 19.0542 9.04779 19.0542 9.27778V12.7067C19.0542 12.9367 19.2374 13.1249 19.4614 13.1249H22.7764C23.0004 13.1249 23.1837 12.9367 23.1837 12.7067V10.411C23.1837 10.2939 23.1348 10.181 23.0493 10.1016L21.8235 8.96834ZM22.3692 12.2885H19.8687V9.69176H21.3918L22.3692 10.595V12.2885ZM11.406 15.2366C10.9173 15.2366 10.4531 15.4331 10.1028 15.7885C9.7526 16.1481 9.55712 16.6165 9.55712 17.1183C9.55712 17.6201 9.74852 18.0884 10.1028 18.448C10.4571 18.8035 10.9173 19 11.406 19C12.4079 19 13.2224 18.1553 13.2224 17.1183C13.2224 16.0812 12.4079 15.2366 11.406 15.2366ZM11.406 18.1637C10.844 18.1637 10.3716 17.687 10.3716 17.1183C10.3716 16.5496 10.844 16.0729 11.406 16.0729C11.9599 16.0729 12.4079 16.5412 12.4079 17.1183C12.4079 17.6953 11.9599 18.1637 11.406 18.1637ZM8.68968 15.7509H7.87111V14.6386C7.87111 14.4086 7.68784 14.2204 7.46386 14.2204C7.23987 14.2204 7.05661 14.4086 7.05661 14.6386V16.1691C7.05661 16.399 7.23987 16.5872 7.46386 16.5872H8.68968C8.91366 16.5872 9.09693 16.399 9.09693 16.1691C9.09693 15.9391 8.91366 15.7509 8.68968 15.7509ZM10.7544 13.4719C10.7544 13.2419 10.5712 13.0538 10.3472 13.0538H5.40725C5.18326 13.0538 5 13.2419 5 13.4719C5 13.7019 5.18326 13.8901 5.40725 13.8901H10.3472C10.5712 13.8901 10.7544 13.7061 10.7544 13.4719ZM6.23396 11.9624L11.1739 11.9916C11.3979 11.9916 11.5811 11.8076 11.5852 11.5777C11.5893 11.3435 11.406 11.1553 11.182 11.1553L6.24211 11.126C6.23804 11.126 6.23804 11.126 6.23804 11.126C6.01405 11.126 5.83079 11.31 5.83079 11.54C5.82672 11.7742 6.00998 11.9624 6.23396 11.9624ZM7.06475 10.0639H12.0047C12.2287 10.0639 12.4119 9.87575 12.4119 9.64576C12.4119 9.41577 12.2287 9.2276 12.0047 9.2276H7.06475C6.84077 9.2276 6.6575 9.41577 6.6575 9.64576C6.6575 9.87575 6.84077 10.0639 7.06475 10.0639ZM24.8493 9.4994L21.9334 7.01971C21.8601 6.95699 21.7705 6.92354 21.6728 6.92354H18.2437V5.41816C18.2437 5.18817 18.0605 5 17.8365 5H7.46386C7.23987 5 7.05661 5.18817 7.05661 5.41816V8.47909C7.05661 8.70908 7.23987 8.89725 7.46386 8.89725C7.68784 8.89725 7.87111 8.70908 7.87111 8.47909V5.83632H17.4333V15.7509H14.0939C13.8699 15.7509 13.6866 15.9391 13.6866 16.1691C13.6866 16.399 13.8699 16.5872 14.0939 16.5872H19.0664C19.2904 16.5872 19.4736 16.399 19.4736 16.1691C19.4736 15.9391 19.2904 15.7509 19.0664 15.7509H18.2478V7.75986H21.5302L24.1855 10.0179L24.157 15.7425H23.7335C23.5095 15.7425 23.3262 15.9307 23.3262 16.1607C23.3262 16.3907 23.5095 16.5789 23.7335 16.5789H24.5602C24.7842 16.5789 24.9674 16.3949 24.9674 16.1649L25 9.82557C24.9959 9.70012 24.943 9.57885 24.8493 9.4994Z" fill="white"/>
</svg>
