<svg width="267" height="55" viewBox="0 0 267 55" fill="none" xmlns="http://www.w3.org/2000/svg">
<path d="M97.669 31.838L97.747 30.798H97.695L97.136 31.864L92.742 38H92.105V28.9H93.184V35.14L93.093 36.167H93.145L93.717 35.101L98.111 28.9H98.748V38H97.669V31.838ZM105.413 35.127H102.475V38H101.435V31.5H102.475V34.217H105.413V31.5H106.453V38H105.413V35.127ZM113.187 32.41H111.146V38H110.106V32.41H108.065V31.5H113.187V32.41ZM119.347 37.48C119.087 37.688 118.757 37.8527 118.359 37.974C117.969 38.0953 117.553 38.156 117.111 38.156C116.617 38.156 116.188 38.078 115.824 37.922C115.46 37.7573 115.161 37.5277 114.927 37.233C114.693 36.9297 114.519 36.57 114.407 36.154C114.294 35.738 114.238 35.27 114.238 34.75C114.238 33.6407 114.485 32.7957 114.979 32.215C115.473 31.6343 116.179 31.344 117.098 31.344C117.392 31.344 117.687 31.3787 117.982 31.448C118.276 31.5087 118.541 31.63 118.775 31.812C119.009 31.994 119.199 32.254 119.347 32.592C119.494 32.9213 119.568 33.359 119.568 33.905C119.568 34.191 119.542 34.5073 119.49 34.854H115.317C115.317 35.2353 115.356 35.5733 115.434 35.868C115.512 36.1627 115.633 36.414 115.798 36.622C115.962 36.8213 116.175 36.9773 116.435 37.09C116.703 37.194 117.028 37.246 117.41 37.246C117.704 37.246 117.999 37.194 118.294 37.09C118.588 36.986 118.809 36.8647 118.957 36.726L119.347 37.48ZM117.111 32.254C116.599 32.254 116.188 32.3883 115.876 32.657C115.572 32.9257 115.39 33.385 115.33 34.035H118.554C118.554 33.3763 118.428 32.917 118.177 32.657C117.925 32.3883 117.57 32.254 117.111 32.254ZM121.788 31.5H122.503L122.698 32.28H122.75C122.95 31.9767 123.205 31.747 123.517 31.591C123.838 31.4263 124.202 31.344 124.609 31.344C125.476 31.344 126.122 31.5997 126.546 32.111C126.971 32.6223 127.183 33.4587 127.183 34.62C127.183 35.166 127.11 35.66 126.962 36.102C126.824 36.5353 126.624 36.9037 126.364 37.207C126.104 37.5103 125.788 37.7443 125.415 37.909C125.051 38.0737 124.644 38.156 124.193 38.156C123.873 38.156 123.617 38.1343 123.426 38.091C123.244 38.0563 123.045 37.9913 122.828 37.896V40.6H121.788V31.5ZM124.414 32.254C123.972 32.254 123.621 32.371 123.361 32.605C123.11 32.8303 122.932 33.177 122.828 33.645V36.869C122.984 36.9903 123.162 37.0857 123.361 37.155C123.561 37.2157 123.825 37.246 124.154 37.246C124.752 37.246 125.225 37.025 125.571 36.583C125.927 36.1323 126.104 35.4737 126.104 34.607C126.104 34.2517 126.074 33.931 126.013 33.645C125.953 33.3503 125.853 33.1033 125.714 32.904C125.584 32.696 125.411 32.5357 125.194 32.423C124.986 32.3103 124.726 32.254 124.414 32.254ZM133.384 35.127H130.446V38H129.406V31.5H130.446V34.217H133.384V31.5H134.424V38H133.384V35.127ZM141.757 37.48C141.497 37.688 141.168 37.8527 140.769 37.974C140.379 38.0953 139.963 38.156 139.521 38.156C139.027 38.156 138.598 38.078 138.234 37.922C137.87 37.7573 137.571 37.5277 137.337 37.233C137.103 36.9297 136.93 36.57 136.817 36.154C136.704 35.738 136.648 35.27 136.648 34.75C136.648 33.6407 136.895 32.7957 137.389 32.215C137.883 31.6343 138.589 31.344 139.508 31.344C139.803 31.344 140.097 31.3787 140.392 31.448C140.687 31.5087 140.951 31.63 141.185 31.812C141.419 31.994 141.61 32.254 141.757 32.592C141.904 32.9213 141.978 33.359 141.978 33.905C141.978 34.191 141.952 34.5073 141.9 34.854H137.727C137.727 35.2353 137.766 35.5733 137.844 35.868C137.922 36.1627 138.043 36.414 138.208 36.622C138.373 36.8213 138.585 36.9773 138.845 37.09C139.114 37.194 139.439 37.246 139.82 37.246C140.115 37.246 140.409 37.194 140.704 37.09C140.999 36.986 141.22 36.8647 141.367 36.726L141.757 37.48ZM139.521 32.254C139.01 32.254 138.598 32.3883 138.286 32.657C137.983 32.9257 137.801 33.385 137.74 34.035H140.964C140.964 33.3763 140.838 32.917 140.587 32.657C140.336 32.3883 139.98 32.254 139.521 32.254ZM148.346 32.41H146.305V38H145.265V32.41H143.224V31.5H148.346V32.41ZM149.031 33.775H152.177V34.737H149.031V33.775ZM159.904 34.139L159.982 32.904H159.917L159.449 33.905L157.876 36.453H157.512L155.874 33.905L155.445 32.904H155.393L155.497 34.126V38H154.535V31.5H155.562L157.382 34.412L157.759 35.166H157.785L158.175 34.386L159.878 31.5H160.918V38H159.904V34.139ZM163.394 31.981C163.724 31.7817 164.105 31.6343 164.538 31.539C164.98 31.4437 165.44 31.396 165.916 31.396C166.367 31.396 166.727 31.4567 166.995 31.578C167.273 31.6993 167.481 31.8597 167.619 32.059C167.767 32.2497 167.862 32.462 167.905 32.696C167.957 32.93 167.983 33.164 167.983 33.398C167.983 33.918 167.97 34.425 167.944 34.919C167.918 35.413 167.905 35.881 167.905 36.323C167.905 36.6437 167.918 36.947 167.944 37.233C167.97 37.519 168.018 37.7833 168.087 38.026H167.32L167.047 37.116H166.982C166.904 37.2373 166.805 37.3587 166.683 37.48C166.571 37.5927 166.432 37.6967 166.267 37.792C166.103 37.8787 165.912 37.9523 165.695 38.013C165.479 38.0737 165.232 38.104 164.954 38.104C164.677 38.104 164.417 38.0607 164.174 37.974C163.94 37.8873 163.737 37.766 163.563 37.61C163.39 37.4453 163.251 37.2503 163.147 37.025C163.052 36.7997 163.004 36.544 163.004 36.258C163.004 35.8767 163.082 35.5603 163.238 35.309C163.394 35.049 163.611 34.8453 163.888 34.698C164.174 34.542 164.512 34.4337 164.902 34.373C165.301 34.3037 165.739 34.269 166.215 34.269C166.337 34.269 166.454 34.269 166.566 34.269C166.688 34.269 166.809 34.2777 166.93 34.295C166.956 34.035 166.969 33.801 166.969 33.593C166.969 33.1163 166.874 32.7827 166.683 32.592C166.493 32.4013 166.146 32.306 165.643 32.306C165.496 32.306 165.336 32.319 165.162 32.345C164.998 32.3623 164.824 32.3927 164.642 32.436C164.469 32.4707 164.3 32.5183 164.135 32.579C163.979 32.631 163.841 32.6917 163.719 32.761L163.394 31.981ZM165.24 37.194C165.483 37.194 165.7 37.1637 165.89 37.103C166.081 37.0337 166.246 36.9513 166.384 36.856C166.523 36.752 166.636 36.6393 166.722 36.518C166.818 36.3967 166.887 36.2797 166.93 36.167V35.088C166.809 35.0793 166.683 35.075 166.553 35.075C166.432 35.0663 166.311 35.062 166.189 35.062C165.921 35.062 165.656 35.0793 165.396 35.114C165.145 35.14 164.92 35.1963 164.72 35.283C164.53 35.361 164.374 35.4737 164.252 35.621C164.14 35.7597 164.083 35.9373 164.083 36.154C164.083 36.4573 164.192 36.7087 164.408 36.908C164.625 37.0987 164.902 37.194 165.24 37.194ZM174.329 32.41H171.573V38H170.533V31.5H174.329V32.41ZM175.813 31.981C176.142 31.7817 176.523 31.6343 176.957 31.539C177.399 31.4437 177.858 31.396 178.335 31.396C178.785 31.396 179.145 31.4567 179.414 31.578C179.691 31.6993 179.899 31.8597 180.038 32.059C180.185 32.2497 180.28 32.462 180.324 32.696C180.376 32.93 180.402 33.164 180.402 33.398C180.402 33.918 180.389 34.425 180.363 34.919C180.337 35.413 180.324 35.881 180.324 36.323C180.324 36.6437 180.337 36.947 180.363 37.233C180.389 37.519 180.436 37.7833 180.506 38.026H179.739L179.466 37.116H179.401C179.323 37.2373 179.223 37.3587 179.102 37.48C178.989 37.5927 178.85 37.6967 178.686 37.792C178.521 37.8787 178.33 37.9523 178.114 38.013C177.897 38.0737 177.65 38.104 177.373 38.104C177.095 38.104 176.835 38.0607 176.593 37.974C176.359 37.8873 176.155 37.766 175.982 37.61C175.808 37.4453 175.67 37.2503 175.566 37.025C175.47 36.7997 175.423 36.544 175.423 36.258C175.423 35.8767 175.501 35.5603 175.657 35.309C175.813 35.049 176.029 34.8453 176.307 34.698C176.593 34.542 176.931 34.4337 177.321 34.373C177.719 34.3037 178.157 34.269 178.634 34.269C178.755 34.269 178.872 34.269 178.985 34.269C179.106 34.269 179.227 34.2777 179.349 34.295C179.375 34.035 179.388 33.801 179.388 33.593C179.388 33.1163 179.292 32.7827 179.102 32.592C178.911 32.4013 178.564 32.306 178.062 32.306C177.914 32.306 177.754 32.319 177.581 32.345C177.416 32.3623 177.243 32.3927 177.061 32.436C176.887 32.4707 176.718 32.5183 176.554 32.579C176.398 32.631 176.259 32.6917 176.138 32.761L175.813 31.981ZM177.659 37.194C177.901 37.194 178.118 37.1637 178.309 37.103C178.499 37.0337 178.664 36.9513 178.803 36.856C178.941 36.752 179.054 36.6393 179.141 36.518C179.236 36.3967 179.305 36.2797 179.349 36.167V35.088C179.227 35.0793 179.102 35.075 178.972 35.075C178.85 35.0663 178.729 35.062 178.608 35.062C178.339 35.062 178.075 35.0793 177.815 35.114C177.563 35.14 177.338 35.1963 177.139 35.283C176.948 35.361 176.792 35.4737 176.671 35.621C176.558 35.7597 176.502 35.9373 176.502 36.154C176.502 36.4573 176.61 36.7087 176.827 36.908C177.043 37.0987 177.321 37.194 177.659 37.194ZM183.575 35.101V34.256H184.485C184.641 34.256 184.792 34.23 184.94 34.178C185.096 34.126 185.234 34.0567 185.356 33.97C185.477 33.8747 185.572 33.7663 185.642 33.645C185.72 33.515 185.759 33.3807 185.759 33.242C185.759 32.904 185.642 32.6657 185.408 32.527C185.174 32.3883 184.823 32.319 184.355 32.319C184.017 32.319 183.705 32.371 183.419 32.475C183.141 32.579 182.925 32.6787 182.769 32.774L182.47 31.968C182.73 31.8207 183.033 31.6907 183.38 31.578C183.735 31.4653 184.155 31.409 184.641 31.409C186.079 31.409 186.799 31.942 186.799 33.008C186.799 33.3113 186.699 33.6103 186.5 33.905C186.309 34.191 186.032 34.3947 185.668 34.516V34.568C186.179 34.6633 186.534 34.8453 186.734 35.114C186.942 35.3827 187.046 35.738 187.046 36.18C187.046 36.4573 186.989 36.713 186.877 36.947C186.764 37.181 186.595 37.3847 186.37 37.558C186.144 37.7313 185.858 37.87 185.512 37.974C185.174 38.0693 184.779 38.117 184.329 38.117C183.887 38.117 183.518 38.078 183.224 38C182.938 37.922 182.678 37.8267 182.444 37.714L182.743 36.856C182.942 36.9687 183.18 37.0553 183.458 37.116C183.744 37.1767 184.051 37.207 184.381 37.207C184.909 37.207 185.312 37.116 185.59 36.934C185.867 36.752 186.006 36.4747 186.006 36.102C186.006 35.79 185.876 35.5473 185.616 35.374C185.356 35.192 184.927 35.101 184.329 35.101H183.575ZM193.33 34.152L193.369 33.346H193.33L192.797 34.178L189.872 38H189.274V31.5H190.314V35.465L190.275 36.232H190.327L190.834 35.426L193.759 31.5H194.37V38H193.33V34.152ZM200.934 35.127H197.996V38H196.956V31.5H197.996V34.217H200.934V31.5H201.974V38H200.934V35.127ZM97.747 53.651H97.045L96.85 52H91.962L91.767 53.651H91.065V51.09H91.832C91.9013 50.9947 91.9923 50.8257 92.105 50.583C92.2177 50.3317 92.326 49.985 92.43 49.543C92.5427 49.0923 92.638 48.5377 92.716 47.879C92.8027 47.2117 92.8547 46.4187 92.872 45.5H96.798V51.09H97.747V53.651ZM95.758 51.09V46.41H93.808C93.7907 46.774 93.7603 47.1727 93.717 47.606C93.6737 48.0307 93.613 48.4597 93.535 48.893C93.4657 49.3177 93.3747 49.7207 93.262 50.102C93.1493 50.4833 93.0193 50.8127 92.872 51.09H95.758ZM99.6192 45.513C99.9225 45.4957 100.239 45.474 100.568 45.448C100.906 45.422 101.322 45.409 101.816 45.409C102.674 45.409 103.29 45.5433 103.662 45.812C104.035 46.072 104.221 46.4707 104.221 47.008C104.221 47.3113 104.13 47.6103 103.948 47.905C103.775 48.191 103.485 48.4033 103.077 48.542V48.594C103.589 48.6893 103.948 48.867 104.156 49.127C104.364 49.387 104.468 49.7337 104.468 50.167C104.468 50.843 104.226 51.3327 103.74 51.636C103.255 51.9393 102.527 52.091 101.556 52.091C101.192 52.091 100.854 52.078 100.542 52.052C100.23 52.0347 99.9225 52.013 99.6192 51.987V45.513ZM100.659 51.129C100.824 51.1463 100.984 51.1593 101.14 51.168C101.305 51.1767 101.496 51.181 101.712 51.181C102.293 51.181 102.722 51.0987 102.999 50.934C103.285 50.7693 103.428 50.4877 103.428 50.089C103.428 49.777 103.307 49.5257 103.064 49.335C102.83 49.1357 102.41 49.036 101.803 49.036H100.659V51.129ZM101.933 48.243C102.089 48.243 102.241 48.217 102.388 48.165C102.536 48.113 102.666 48.0437 102.778 47.957C102.9 47.8617 102.995 47.7533 103.064 47.632C103.142 47.5107 103.181 47.3807 103.181 47.242C103.181 46.8953 103.077 46.657 102.869 46.527C102.661 46.3883 102.297 46.319 101.777 46.319C101.5 46.319 101.279 46.3233 101.114 46.332C100.958 46.3407 100.807 46.3493 100.659 46.358V48.243H101.933ZM111.437 51.48C111.177 51.688 110.847 51.8527 110.449 51.974C110.059 52.0953 109.643 52.156 109.201 52.156C108.707 52.156 108.278 52.078 107.914 51.922C107.55 51.7573 107.251 51.5277 107.017 51.233C106.783 50.9297 106.609 50.57 106.497 50.154C106.384 49.738 106.328 49.27 106.328 48.75C106.328 47.6407 106.575 46.7957 107.069 46.215C107.563 45.6343 108.269 45.344 109.188 45.344C109.482 45.344 109.777 45.3787 110.072 45.448C110.366 45.5087 110.631 45.63 110.865 45.812C111.099 45.994 111.289 46.254 111.437 46.592C111.584 46.9213 111.658 47.359 111.658 47.905C111.658 48.191 111.632 48.5073 111.58 48.854H107.407C107.407 49.2353 107.446 49.5733 107.524 49.868C107.602 50.1627 107.723 50.414 107.888 50.622C108.052 50.8213 108.265 50.9773 108.525 51.09C108.793 51.194 109.118 51.246 109.5 51.246C109.794 51.246 110.089 51.194 110.384 51.09C110.678 50.986 110.899 50.8647 111.047 50.726L111.437 51.48ZM109.201 46.254C108.689 46.254 108.278 46.3883 107.966 46.657C107.662 46.9257 107.48 47.385 107.42 48.035H110.644C110.644 47.3763 110.518 46.917 110.267 46.657C110.015 46.3883 109.66 46.254 109.201 46.254ZM113.878 45.5H114.593L114.788 46.28H114.84C115.039 45.9767 115.295 45.747 115.607 45.591C115.928 45.4263 116.292 45.344 116.699 45.344C117.566 45.344 118.211 45.5997 118.636 46.111C119.061 46.6223 119.273 47.4587 119.273 48.62C119.273 49.166 119.199 49.66 119.052 50.102C118.913 50.5353 118.714 50.9037 118.454 51.207C118.194 51.5103 117.878 51.7443 117.505 51.909C117.141 52.0737 116.734 52.156 116.283 52.156C115.962 52.156 115.707 52.1343 115.516 52.091C115.334 52.0563 115.135 51.9913 114.918 51.896V54.6H113.878V45.5ZM116.504 46.254C116.062 46.254 115.711 46.371 115.451 46.605C115.2 46.8303 115.022 47.177 114.918 47.645V50.869C115.074 50.9903 115.252 51.0857 115.451 51.155C115.65 51.2157 115.915 51.246 116.244 51.246C116.842 51.246 117.314 51.025 117.661 50.583C118.016 50.1323 118.194 49.4737 118.194 48.607C118.194 48.2517 118.164 47.931 118.103 47.645C118.042 47.3503 117.943 47.1033 117.804 46.904C117.674 46.696 117.501 46.5357 117.284 46.423C117.076 46.3103 116.816 46.254 116.504 46.254ZM126.241 51.48C125.981 51.688 125.652 51.8527 125.253 51.974C124.863 52.0953 124.447 52.156 124.005 52.156C123.511 52.156 123.082 52.078 122.718 51.922C122.354 51.7573 122.055 51.5277 121.821 51.233C121.587 50.9297 121.414 50.57 121.301 50.154C121.189 49.738 121.132 49.27 121.132 48.75C121.132 47.6407 121.379 46.7957 121.873 46.215C122.367 45.6343 123.074 45.344 123.992 45.344C124.287 45.344 124.582 45.3787 124.876 45.448C125.171 45.5087 125.435 45.63 125.669 45.812C125.903 45.994 126.094 46.254 126.241 46.592C126.389 46.9213 126.462 47.359 126.462 47.905C126.462 48.191 126.436 48.5073 126.384 48.854H122.211C122.211 49.2353 122.25 49.5733 122.328 49.868C122.406 50.1627 122.528 50.414 122.692 50.622C122.857 50.8213 123.069 50.9773 123.329 51.09C123.598 51.194 123.923 51.246 124.304 51.246C124.599 51.246 124.894 51.194 125.188 51.09C125.483 50.986 125.704 50.8647 125.851 50.726L126.241 51.48ZM124.005 46.254C123.494 46.254 123.082 46.3883 122.77 46.657C122.467 46.9257 122.285 47.385 122.224 48.035H125.448C125.448 47.3763 125.323 46.917 125.071 46.657C124.82 46.3883 124.465 46.254 124.005 46.254ZM132.739 48.152L132.778 47.346H132.739L132.206 48.178L129.281 52H128.683V45.5H129.723V49.465L129.684 50.232H129.736L130.243 49.426L133.168 45.5H133.779V52H132.739V48.152ZM130.178 42.874C130.265 43.2727 130.412 43.55 130.62 43.706C130.837 43.862 131.084 43.94 131.361 43.94C131.638 43.94 131.885 43.8577 132.102 43.693C132.319 43.5283 132.466 43.2597 132.544 42.887L133.324 43.134C133.246 43.6367 133.021 44.0223 132.648 44.291C132.284 44.5597 131.846 44.694 131.335 44.694C131.101 44.694 130.867 44.6637 130.633 44.603C130.408 44.5423 130.204 44.4513 130.022 44.33C129.84 44.2087 129.684 44.0527 129.554 43.862C129.424 43.6713 129.337 43.446 129.294 43.186L130.178 42.874ZM144.471 48.152L144.51 47.346H144.471L143.938 48.178L141.013 52H140.415V45.5H141.455V49.465L141.416 50.232H141.468L141.975 49.426L144.9 45.5H145.511V52H144.471V48.152ZM153.786 49.075H153.188V52H152.148V45.5H153.188V48.438L153.747 48.256L155.827 45.5H156.958L154.943 48.113L154.397 48.542L155.073 49.062L157.244 52H155.957L153.786 49.075ZM158.437 48.75C158.437 47.6493 158.68 46.8087 159.165 46.228C159.659 45.6387 160.366 45.344 161.284 45.344C161.77 45.344 162.19 45.4263 162.545 45.591C162.909 45.747 163.208 45.9767 163.442 46.28C163.676 46.5747 163.85 46.9343 163.962 47.359C164.075 47.775 164.131 48.2387 164.131 48.75C164.131 49.8507 163.884 50.6957 163.39 51.285C162.905 51.8657 162.203 52.156 161.284 52.156C160.799 52.156 160.374 52.078 160.01 51.922C159.655 51.7573 159.36 51.5277 159.126 51.233C158.892 50.9297 158.719 50.57 158.606 50.154C158.494 49.7293 158.437 49.2613 158.437 48.75ZM159.516 48.75C159.516 49.0793 159.547 49.3957 159.607 49.699C159.677 50.0023 159.781 50.2667 159.919 50.492C160.058 50.7173 160.24 50.8993 160.465 51.038C160.691 51.1767 160.964 51.246 161.284 51.246C162.463 51.2547 163.052 50.4227 163.052 48.75C163.052 48.412 163.018 48.0913 162.948 47.788C162.888 47.4847 162.788 47.2203 162.649 46.995C162.511 46.7697 162.329 46.592 162.103 46.462C161.878 46.3233 161.605 46.254 161.284 46.254C160.106 46.2453 159.516 47.0773 159.516 48.75ZM171.725 48.139L171.803 46.904H171.738L171.27 47.905L169.697 50.453H169.333L167.695 47.905L167.266 46.904H167.214L167.318 48.126V52H166.356V45.5H167.383L169.203 48.412L169.58 49.166H169.606L169.996 48.386L171.699 45.5H172.739V52H171.725V48.139ZM179.233 46.41H176.36V52H175.32V45.5H180.273V52H179.233V46.41ZM186.359 46.41H184.474C184.448 46.774 184.422 47.1683 184.396 47.593C184.37 48.009 184.331 48.4293 184.279 48.854C184.227 49.27 184.158 49.673 184.071 50.063C183.984 50.4443 183.872 50.7823 183.733 51.077C183.603 51.3717 183.438 51.61 183.239 51.792C183.048 51.9653 182.819 52.052 182.55 52.052C182.385 52.052 182.242 52.0433 182.121 52.026C182 52.0087 181.891 51.9783 181.796 51.935L181.952 51.064C182.056 51.0987 182.169 51.116 182.29 51.116C182.463 51.116 182.619 51.0423 182.758 50.895C182.897 50.7477 183.018 50.4703 183.122 50.063C183.226 49.647 183.313 49.075 183.382 48.347C183.451 47.619 183.499 46.67 183.525 45.5H187.399V52H186.359V46.41ZM194.73 51.48C194.47 51.688 194.141 51.8527 193.742 51.974C193.352 52.0953 192.936 52.156 192.494 52.156C192 52.156 191.571 52.078 191.207 51.922C190.843 51.7573 190.544 51.5277 190.31 51.233C190.076 50.9297 189.903 50.57 189.79 50.154C189.677 49.738 189.621 49.27 189.621 48.75C189.621 47.6407 189.868 46.7957 190.362 46.215C190.856 45.6343 191.562 45.344 192.481 45.344C192.776 45.344 193.07 45.3787 193.365 45.448C193.66 45.5087 193.924 45.63 194.158 45.812C194.392 45.994 194.583 46.254 194.73 46.592C194.877 46.9213 194.951 47.359 194.951 47.905C194.951 48.191 194.925 48.5073 194.873 48.854H190.7C190.7 49.2353 190.739 49.5733 190.817 49.868C190.895 50.1627 191.016 50.414 191.181 50.622C191.346 50.8213 191.558 50.9773 191.818 51.09C192.087 51.194 192.412 51.246 192.793 51.246C193.088 51.246 193.382 51.194 193.677 51.09C193.972 50.986 194.193 50.8647 194.34 50.726L194.73 51.48ZM192.494 46.254C191.983 46.254 191.571 46.3883 191.259 46.657C190.956 46.9257 190.774 47.385 190.713 48.035H193.937C193.937 47.3763 193.811 46.917 193.56 46.657C193.309 46.3883 192.953 46.254 192.494 46.254ZM198.81 49.075H198.212V52H197.172V45.5H198.212V48.438L198.771 48.256L200.851 45.5H201.982L199.967 48.113L199.421 48.542L200.097 49.062L202.268 52H200.981L198.81 49.075ZM208.112 46.41H206.071V52H205.031V46.41H202.99V45.5H208.112V46.41ZM211.64 49.712L212.004 50.96H212.069L212.355 49.699L213.616 45.5H214.669L212.745 51.337C212.598 51.7617 212.451 52.1733 212.303 52.572C212.165 52.9707 212.009 53.326 211.835 53.638C211.662 53.95 211.467 54.197 211.25 54.379C211.034 54.5697 210.782 54.665 210.496 54.665C210.184 54.665 209.929 54.6217 209.729 54.535L209.911 53.638C210.024 53.6813 210.132 53.703 210.236 53.703C210.479 53.703 210.713 53.573 210.938 53.313C211.164 53.0617 211.35 52.624 211.497 52L208.884 45.5H210.08L211.64 49.712ZM221.414 52.156C220.946 52.156 220.543 52.0867 220.205 51.948C219.876 51.8007 219.603 51.597 219.386 51.337C219.178 51.0683 219.018 50.7477 218.905 50.375C218.801 49.9937 218.736 49.5777 218.71 49.127H217.41V52H216.37V45.5H217.41V48.217H218.723C218.792 47.2897 219.044 46.579 219.477 46.085C219.919 45.591 220.573 45.344 221.44 45.344C221.917 45.344 222.32 45.4263 222.649 45.591C222.987 45.747 223.26 45.9767 223.468 46.28C223.685 46.5747 223.841 46.9343 223.936 47.359C224.031 47.775 224.079 48.2387 224.079 48.75C224.079 49.8507 223.858 50.6957 223.416 51.285C222.983 51.8657 222.315 52.156 221.414 52.156ZM219.737 48.75C219.737 49.088 219.763 49.4087 219.815 49.712C219.867 50.0153 219.958 50.284 220.088 50.518C220.218 50.7433 220.391 50.921 220.608 51.051C220.833 51.181 221.111 51.246 221.44 51.246C221.995 51.246 222.393 51.0467 222.636 50.648C222.879 50.2407 223 49.608 223 48.75C223 48.412 222.974 48.0913 222.922 47.788C222.879 47.4847 222.796 47.2203 222.675 46.995C222.554 46.761 222.393 46.579 222.194 46.449C221.995 46.319 221.739 46.254 221.427 46.254C220.829 46.254 220.396 46.4577 220.127 46.865C219.867 47.2637 219.737 47.892 219.737 48.75ZM234.801 53.651H234.099L233.904 52H226.299V45.5H227.339V51.09H229.562V45.5H230.602V51.09H232.825V45.5H233.865V51.09H234.801V53.651ZM240.728 48.152L240.767 47.346H240.728L240.195 48.178L237.27 52H236.672V45.5H237.712V49.465L237.673 50.232H237.725L238.232 49.426L241.157 45.5H241.768V52H240.728V48.152ZM246.056 48.672L243.872 45.5H245.146L246.381 47.294L246.745 48.035L247.122 47.294L248.383 45.5H249.553L247.356 48.62L249.683 52H248.448L247.07 50.024L246.68 49.244L246.277 50.024L244.873 52H243.716L246.056 48.672Z" fill="#00365E"/>
<path fill-rule="evenodd" clip-rule="evenodd" d="M0.436157 30.2023L40.38 10.0509V0L0.436157 20.139V30.2023Z" fill="#A1D400"/>
<path fill-rule="evenodd" clip-rule="evenodd" d="M80.3115 30.2023L40.38 10.0509V0L80.3115 20.139V30.2023Z" fill="#6B9500"/>
<path fill-rule="evenodd" clip-rule="evenodd" d="M40.38 0L0.436157 30.2023L40.38 10.0509V0Z" fill="#6B9500"/>
<path fill-rule="evenodd" clip-rule="evenodd" d="M40.38 0L80.3115 30.2023L40.38 10.0509V0Z" fill="#304B00"/>
<path fill-rule="evenodd" clip-rule="evenodd" d="M0.436157 51.9999L40.38 31.8609V21.7976L0.436157 41.9366V51.9999Z" fill="#0B8FFB"/>
<path fill-rule="evenodd" clip-rule="evenodd" d="M80.3115 51.9999L40.38 31.8609V21.7976L80.3115 41.9366V51.9999Z" fill="#066CBE"/>
<path fill-rule="evenodd" clip-rule="evenodd" d="M40.38 21.7976L0.436157 51.9999L40.38 31.8609V21.7976Z" fill="#066CBE"/>
<path fill-rule="evenodd" clip-rule="evenodd" d="M40.38 21.7976L80.3115 51.9999L40.38 31.8609V21.7976Z" fill="#00365E"/>
<path d="M106.472 25.0473H103.642V21.2275H94.1123V25.0473H91.2424L91.0024 18.8375H92.2024C92.7624 18.3576 93.2424 17.6076 93.6523 16.5776C94.0623 15.5476 94.3023 14.0377 94.3823 12.0478L94.6723 7.86791L93.1524 7.56792V5.68799H106.582V7.56792L104.932 7.88791V18.8375H106.772L106.482 25.0473H106.472ZM97.5022 12.0378C97.4422 13.6077 97.2522 14.9477 96.9422 16.0476C96.6322 17.1476 96.2323 18.0776 95.7323 18.8275H101.802V8.07791H97.7522L97.4922 12.0378H97.5022ZM114.872 5.67799C116.702 5.67799 118.122 6.03798 119.151 6.74795C120.181 7.45793 120.691 8.52789 120.691 9.93784C120.691 10.6578 120.501 11.2978 120.121 11.8678C119.741 12.4278 119.181 12.8577 118.461 13.1477C119.391 13.3477 120.091 13.7777 120.561 14.4277C121.031 15.0777 121.261 15.8376 121.261 16.6976C121.261 18.1876 120.771 19.3075 119.781 20.0775C118.801 20.8475 117.412 21.2275 115.612 21.2275H107.962V19.3575L109.612 19.0375V7.88791L107.962 7.56792V5.68799H109.612H114.862L114.872 5.67799ZM112.732 14.3477V18.8375H115.602C116.422 18.8375 117.052 18.6575 117.492 18.2976C117.922 17.9376 118.142 17.4076 118.142 16.6976C118.142 15.9376 117.952 15.3577 117.592 14.9477C117.222 14.5477 116.642 14.3477 115.842 14.3477H112.742H112.732ZM112.732 12.1878H114.972C115.802 12.1878 116.442 12.0178 116.892 11.6778C117.342 11.3378 117.562 10.8378 117.562 10.1878C117.562 9.46786 117.332 8.93788 116.882 8.59789C116.432 8.2579 115.752 8.08791 114.862 8.08791H112.722V12.1978L112.732 12.1878ZM132.451 14.3877H127.191V18.8275H132.211L132.351 16.9676H134.721V21.2175H122.421V19.3475L124.071 19.0275V7.87791L122.421 7.55793V5.67799H124.071H134.691V9.93784H132.301L132.161 8.08791H127.191V11.9978H132.451V14.3977V14.3877ZM143.781 5.67799C145.561 5.67799 146.971 6.13797 147.99 7.04794C149.02 7.95791 149.53 9.15787 149.53 10.6378C149.53 12.1278 149.02 13.3177 147.99 14.2277C146.961 15.1277 145.561 15.5876 143.781 15.5876H141.161V19.0375L142.831 19.3575V21.2275H136.391V19.3575L138.041 19.0375V7.88791L136.391 7.56792V5.68799H138.041H143.781V5.67799ZM141.161 13.1877H143.781C144.651 13.1877 145.311 12.9477 145.751 12.4778C146.191 12.0078 146.421 11.3978 146.421 10.6678C146.421 9.91784 146.201 9.29787 145.751 8.81788C145.311 8.3279 144.651 8.08791 143.781 8.08791H141.161V13.1877ZM157.11 5.67799V7.55793L155.44 7.87791V15.0677L155.5 15.0877L161.77 8.73788V7.87791L160.12 7.55793V5.67799H161.77H164.9H166.56V7.55793L164.9 7.87791V19.0275L166.56 19.3475V21.2175H160.12V19.3475L161.77 19.0275V12.0078L161.7 11.9878L155.44 18.3476V19.0275L157.11 19.3475V21.2175H150.67V19.3475L152.34 19.0275V7.87791L150.67 7.55793V5.67799H152.34H155.45H157.12H157.11ZM179.939 5.67799C181.769 5.67799 183.189 6.03798 184.219 6.74795C185.249 7.45793 185.759 8.52789 185.759 9.93784C185.759 10.6578 185.569 11.2978 185.189 11.8678C184.809 12.4278 184.249 12.8577 183.529 13.1477C184.459 13.3477 185.159 13.7777 185.629 14.4277C186.099 15.0777 186.329 15.8376 186.329 16.6976C186.329 18.1876 185.839 19.3075 184.849 20.0775C183.869 20.8475 182.479 21.2275 180.679 21.2275H173.03V19.3575L174.68 19.0375V7.88791L173.03 7.56792V5.68799H174.68H179.929L179.939 5.67799ZM177.799 14.3477V18.8375H180.669C181.489 18.8375 182.119 18.6575 182.559 18.2976C182.989 17.9376 183.209 17.4076 183.209 16.6976C183.209 15.9376 183.019 15.3577 182.659 14.9477C182.289 14.5477 181.709 14.3477 180.909 14.3477H177.809H177.799ZM177.799 12.1878H180.039C180.869 12.1878 181.509 12.0178 181.959 11.6778C182.409 11.3378 182.629 10.8378 182.629 10.1878C182.629 9.46786 182.399 8.93788 181.949 8.59789C181.499 8.2579 180.819 8.08791 179.929 8.08791H177.789V12.1978L177.799 12.1878ZM197.519 14.3877H192.259V18.8275H197.279L197.419 16.9676H199.789V21.2175H187.489V19.3475L189.139 19.0275V7.87791L187.489 7.55793V5.67799H189.139H199.759V9.93784H197.369L197.229 8.08791H192.259V11.9978H197.519V14.3977V14.3877ZM201.449 19.3475L203.099 19.0275V7.87791L201.449 7.55793V5.67799H207.798V7.55793L206.218 7.87791V12.0278H207.618L210.538 7.82792C211.158 6.95795 211.708 6.35797 212.178 6.02798C212.658 5.68799 213.288 5.528 214.078 5.528C214.438 5.528 214.778 5.57799 215.088 5.67799C215.398 5.77799 215.688 5.90798 215.958 6.07798L215.438 8.4179C215.208 8.3679 215.058 8.3379 214.978 8.3179C214.898 8.2979 214.778 8.2879 214.638 8.2879C214.308 8.2879 214.008 8.3779 213.728 8.56789C213.448 8.75788 213.118 9.09787 212.728 9.60785L210.298 12.9377L214.598 19.0975L216.228 19.3675V21.2375H210.068V19.3675L210.958 19.2375L208.058 14.8677H206.228V19.0375L207.808 19.3575V21.2275H201.459V19.3575L201.449 19.3475ZM230.768 5.66799V9.80785H228.378L228.248 8.06791H225.388V19.0175L227.058 19.3375V21.2075H220.608V19.3375L222.278 19.0175V8.06791H219.428L219.298 9.80785H216.918V5.66799H230.778H230.768ZM245.697 13.5577C245.697 15.8376 245.047 17.7176 243.737 19.2075C242.437 20.6975 240.727 21.4374 238.627 21.4374C236.527 21.4374 234.837 20.6875 233.538 19.2075C232.248 17.7176 231.598 15.8376 231.598 13.5577V13.3277C231.598 11.0678 232.248 9.18787 233.538 7.68792C234.827 6.19797 236.517 5.448 238.617 5.448C240.727 5.448 242.427 6.19797 243.737 7.68792C245.037 9.17787 245.697 11.0578 245.697 13.3277V13.5577ZM242.587 13.2977C242.587 11.6878 242.247 10.3778 241.587 9.37786C240.917 8.3779 239.927 7.86791 238.617 7.86791C237.307 7.86791 236.337 8.3679 235.687 9.35786C235.037 10.3478 234.717 11.6678 234.717 13.2877V13.5477C234.717 15.1877 235.037 16.5076 235.697 17.5076C236.347 18.5075 237.327 19.0075 238.627 19.0075C239.947 19.0075 240.937 18.5075 241.597 17.5076C242.257 16.5076 242.587 15.1877 242.587 13.5477V13.2877V13.2977ZM254.337 5.66799C256.117 5.66799 257.527 6.12797 258.547 7.03794C259.577 7.94791 260.087 9.14787 260.087 10.6278C260.087 12.1178 259.577 13.3077 258.547 14.2177C257.517 15.1177 256.117 15.5776 254.337 15.5776H251.717V19.0275L253.387 19.3475V21.2175H246.947V19.3475L248.597 19.0275V7.87791L246.947 7.55793V5.67799H248.597H254.337V5.66799ZM251.717 13.1777H254.337C255.207 13.1777 255.867 12.9377 256.307 12.4678C256.747 11.9978 256.977 11.3878 256.977 10.6578C256.977 9.90784 256.757 9.28787 256.307 8.80788C255.867 8.3179 255.207 8.07791 254.337 8.07791H251.717V13.1777Z" fill="#00365E"/>
</svg>
