<svg width="30" height="30" viewBox="0 0 30 30" fill="none" xmlns="http://www.w3.org/2000/svg">
<circle cx="15" cy="15" r="15" fill="#FFB23E"/>
<path d="M6.19185 13.4425L7.48287 14.8903L8.20086 13.0882L10.8894 12.6142L9.23385 16.2976L12.3135 19.4812L9.5757 19.9639L8.09932 18.3863L7.27125 20.3703L4.60242 20.8409L6.40686 16.9078L3.53287 13.9113L6.19185 13.4425ZM11.5463 12.5085L13.8311 12.1056L14.4632 15.6903L16.2045 11.6871L18.3907 11.3016L19.6063 18.1953L17.3215 18.5981L16.6912 15.0233L14.958 19.0149L12.7619 19.4021L11.5463 12.5085ZM25.8024 11.853L23.7836 12.209L24.6813 17.3004L22.3966 17.7033L21.4988 12.6118L19.48 12.9678L19.1622 11.1656L25.4847 10.0508L25.8024 11.853Z" fill="white"/>
</svg>
