<svg width="30" height="30" viewBox="0 0 30 30" fill="none" xmlns="http://www.w3.org/2000/svg">
<circle cx="15" cy="15" r="15" fill="#1E4BC6"/>
<path d="M22.1158 19.3833C21.8042 19.1515 21.3638 19.2162 21.132 19.5277C21.0045 19.6991 20.8681 19.8672 20.7266 20.0273C20.4694 20.3182 20.4967 20.7626 20.7876 21.0198C20.9214 21.1381 21.0875 21.1962 21.2531 21.1962C21.4475 21.1962 21.6412 21.1159 21.7801 20.9587C21.9478 20.7691 22.1093 20.57 22.2603 20.3671C22.4921 20.0555 22.4274 19.615 22.1158 19.3833Z" fill="#FFE600"/>
<path d="M23.2918 16.0858C22.9126 16.0032 22.5378 16.2439 22.4552 16.6233C22.4097 16.832 22.3548 17.0411 22.2918 17.2449C22.1772 17.6159 22.385 18.0096 22.756 18.1242C22.8252 18.1456 22.8951 18.1557 22.9639 18.1557C23.2641 18.1557 23.5421 17.9619 23.6354 17.66C23.7101 17.4182 23.7753 17.17 23.8293 16.9224C23.9118 16.543 23.6712 16.1684 23.2918 16.0858Z" fill="#FFE600"/>
<path d="M18.7315 21.6352C18.5448 21.7394 18.3515 21.8367 18.157 21.9246C17.8031 22.0844 17.6458 22.5009 17.8056 22.8548C17.923 23.1148 18.1789 23.2687 18.4468 23.2687C18.5436 23.2687 18.6419 23.2486 18.7358 23.2062C18.9665 23.102 19.1957 22.9865 19.417 22.863C19.7561 22.6737 19.8775 22.2453 19.6881 21.9063C19.4989 21.5673 19.0705 21.4459 18.7315 21.6352Z" fill="#FFE600"/>
<path d="M14.2969 9.375V14.7088L11.7186 17.2871C11.444 17.5617 11.444 18.0068 11.7186 18.2814C11.8559 18.4187 12.0358 18.4874 12.2158 18.4874C12.3957 18.4874 12.5757 18.4187 12.713 18.2814L15.4972 15.4972C15.6291 15.3653 15.7031 15.1865 15.7031 15V9.375C15.7031 8.98666 15.3883 8.67188 15 8.67188C14.6117 8.67188 14.2969 8.98666 14.2969 9.375Z" fill="#FFE600"/>
<path d="M23.2969 7.51172C22.9085 7.51172 22.5938 7.82651 22.5938 8.21484V10.1673C20.9572 7.60059 18.0991 6 15 6C12.596 6 10.3359 6.93618 8.63602 8.63602C6.93618 10.3359 6 12.596 6 15C6 17.404 6.93618 19.6641 8.63602 21.364C10.3359 23.0638 12.596 24 15 24C15.0059 24 15.0117 23.9993 15.0176 23.9991C15.0235 23.9993 15.0292 24 15.0352 24C15.2886 24 15.5445 23.9893 15.7958 23.9683C16.1828 23.9359 16.4702 23.5959 16.4379 23.2089C16.4054 22.822 16.0659 22.5344 15.6785 22.567C15.466 22.5847 15.2496 22.5938 15.0352 22.5938C15.0292 22.5938 15.0235 22.5945 15.0176 22.5946C15.0117 22.5945 15.0059 22.5938 15 22.5938C10.8128 22.5938 7.40625 19.1872 7.40625 15C7.40625 10.8128 10.8128 7.40625 15 7.40625C17.6985 7.40625 20.1805 8.8446 21.5368 11.1328H19.6035C19.2151 11.1328 18.9003 11.4476 18.9003 11.8359C18.9003 12.2243 19.2151 12.5391 19.6035 12.5391H21.75C22.1782 12.5391 22.5788 12.4187 22.9199 12.2102C22.9418 12.1977 22.9629 12.1843 22.983 12.1697C23.595 11.7672 24 11.0747 24 10.2891V8.21484C24 7.82651 23.6852 7.51172 23.2969 7.51172Z" fill="#FFE600"/>
</svg>
