<svg width="30" height="30" viewBox="0 0 30 30" fill="none" xmlns="http://www.w3.org/2000/svg">
<circle cx="15" cy="15" r="15" fill="#00365E"/>
<path d="M16.183 11.7109C16.3362 11.6284 16.5068 11.5848 16.6839 11.5848C16.9773 11.5848 17.2532 11.7047 17.4612 11.9225L17.9088 11.4513C19.0167 11.8601 20.298 11.5984 21.1836 10.6661C21.9288 9.88155 22.2227 8.80217 22.0658 7.78473C22.0485 7.67269 21.9732 7.58027 21.8706 7.54541C21.768 7.51049 21.6554 7.53886 21.5792 7.61915L20.9145 8.31893C20.3732 8.8888 19.4955 8.8888 18.9542 8.31893C18.4128 7.74905 18.4128 6.82504 18.9542 6.25516L19.6189 5.55538C19.6952 5.4751 19.7223 5.35656 19.6891 5.24852C19.656 5.14044 19.568 5.0613 19.4616 5.04311C18.4952 4.87795 17.4699 5.18734 16.7247 5.97185C15.8259 6.91808 15.584 8.29319 15.9974 9.47119L15.0265 10.4934L16.183 11.7109Z" fill="white"/>
<path d="M14.4137 13.5631L13.262 12.3507L9.23512 16.5901C8.7115 17.1413 8.7115 18.0351 9.23512 18.5863C9.75873 19.1376 10.6077 19.1376 11.1313 18.5863L14.6027 14.9317C14.2526 14.5611 14.1895 14.0017 14.4137 13.5631Z" fill="white"/>
<path d="M16.9827 12.4313C16.9004 12.3447 16.7924 12.3013 16.6845 12.3013C16.5766 12.3013 16.4686 12.3447 16.3863 12.4313L16.1459 12.6844L11.8637 8.17625L12.0638 7.96553C12.2462 7.77358 12.2236 7.45517 12.0157 7.29402L10.2686 5.9394C10.1007 5.80926 9.86766 5.82774 9.72022 5.98296L8.97839 6.76398C8.83095 6.9192 8.8134 7.16455 8.93702 7.34126L10.2237 9.1806C10.3768 9.39939 10.679 9.42346 10.8615 9.23127L11.0617 9.02051L15.3439 13.5287L15.0866 13.7996C14.9218 13.973 14.9218 14.2541 15.0866 14.4275L19.037 18.5864C19.5606 19.1377 20.4096 19.1377 20.9332 18.5864C21.4568 18.0352 21.4568 17.1415 20.9332 16.5902L16.9827 12.4313Z" fill="white"/>
<path d="M8.49619 25.048C8.16419 25.048 7.86819 24.964 7.60819 24.796C7.35219 24.624 7.15019 24.376 7.00219 24.052C6.85419 23.728 6.78019 23.344 6.78019 22.9C6.78019 22.456 6.85419 22.072 7.00219 21.748C7.15019 21.424 7.35219 21.178 7.60819 21.01C7.86819 20.838 8.16419 20.752 8.49619 20.752C8.82419 20.752 9.11619 20.838 9.37219 21.01C9.63219 21.178 9.83619 21.424 9.98419 21.748C10.1322 22.072 10.2062 22.456 10.2062 22.9C10.2062 23.344 10.1322 23.728 9.98419 24.052C9.83619 24.376 9.63219 24.624 9.37219 24.796C9.11619 24.964 8.82419 25.048 8.49619 25.048ZM8.49619 24.514C8.83219 24.514 9.10019 24.376 9.30019 24.1C9.50419 23.824 9.60619 23.424 9.60619 22.9C9.60619 22.376 9.50419 21.976 9.30019 21.7C9.10019 21.424 8.83219 21.286 8.49619 21.286C8.15619 21.286 7.88419 21.424 7.68019 21.7C7.48019 21.976 7.38019 22.376 7.38019 22.9C7.38019 23.424 7.48019 23.824 7.68019 24.1C7.88419 24.376 8.15619 24.514 8.49619 24.514ZM14.3495 21.79C14.6575 21.79 14.9335 21.858 15.1775 21.994C15.4215 22.13 15.6115 22.32 15.7475 22.564C15.8875 22.808 15.9575 23.09 15.9575 23.41C15.9575 23.73 15.8875 24.014 15.7475 24.262C15.6115 24.506 15.4215 24.696 15.1775 24.832C14.9335 24.968 14.6575 25.036 14.3495 25.036C14.1215 25.036 13.9115 24.992 13.7195 24.904C13.5315 24.816 13.3715 24.688 13.2395 24.52V26.164H12.6635V21.82H13.2155V22.324C13.3435 22.148 13.5055 22.016 13.7015 21.928C13.8975 21.836 14.1135 21.79 14.3495 21.79ZM14.3015 24.532C14.5055 24.532 14.6875 24.486 14.8475 24.394C15.0115 24.298 15.1395 24.166 15.2315 23.998C15.3275 23.826 15.3755 23.63 15.3755 23.41C15.3755 23.19 15.3275 22.996 15.2315 22.828C15.1395 22.656 15.0115 22.524 14.8475 22.432C14.6875 22.34 14.5055 22.294 14.3015 22.294C14.1015 22.294 13.9195 22.342 13.7555 22.438C13.5955 22.53 13.4675 22.66 13.3715 22.828C13.2795 22.996 13.2335 23.19 13.2335 23.41C13.2335 23.63 13.2795 23.826 13.3715 23.998C13.4635 24.166 13.5915 24.298 13.7555 24.394C13.9195 24.486 14.1015 24.532 14.3015 24.532ZM19.5444 21.82L18.0024 25.318C17.8664 25.642 17.7064 25.87 17.5224 26.002C17.3424 26.134 17.1244 26.2 16.8684 26.2C16.7124 26.2 16.5604 26.174 16.4124 26.122C16.2684 26.074 16.1484 26.002 16.0524 25.906L16.2984 25.474C16.4624 25.63 16.6524 25.708 16.8684 25.708C17.0084 25.708 17.1244 25.67 17.2164 25.594C17.3124 25.522 17.3984 25.396 17.4744 25.216L17.5764 24.994L16.1724 21.82H16.7724L17.8824 24.364L18.9804 21.82H19.5444ZM21.7132 21.928C22.0092 21.928 22.2732 21.994 22.5052 22.126C22.7372 22.258 22.9172 22.442 23.0452 22.678C23.1772 22.91 23.2432 23.176 23.2432 23.476C23.2432 23.784 23.1732 24.058 23.0332 24.298C22.8972 24.534 22.7032 24.718 22.4512 24.85C22.2032 24.982 21.9192 25.048 21.5992 25.048C21.0592 25.048 20.6412 24.864 20.3452 24.496C20.0532 24.124 19.9072 23.602 19.9072 22.93C19.9072 22.278 20.0412 21.768 20.3092 21.4C20.5772 21.028 20.9872 20.782 21.5392 20.662L22.9912 20.338L23.0752 20.866L21.7372 21.154C21.3212 21.246 21.0112 21.402 20.8072 21.622C20.6032 21.842 20.4872 22.158 20.4592 22.57C20.5952 22.366 20.7712 22.208 20.9872 22.096C21.2032 21.984 21.4452 21.928 21.7132 21.928ZM21.6112 24.568C21.8152 24.568 21.9952 24.522 22.1512 24.43C22.3112 24.338 22.4352 24.212 22.5232 24.052C22.6112 23.888 22.6552 23.702 22.6552 23.494C22.6552 23.178 22.5592 22.924 22.3672 22.732C22.1752 22.54 21.9232 22.444 21.6112 22.444C21.2992 22.444 21.0452 22.54 20.8492 22.732C20.6572 22.924 20.5612 23.178 20.5612 23.494C20.5612 23.702 20.6052 23.888 20.6932 24.052C20.7852 24.212 20.9112 24.338 21.0712 24.43C21.2312 24.522 21.4112 24.568 21.6112 24.568Z" fill="white"/>
</svg>
