<svg width="30" height="30" viewBox="0 0 30 30" fill="none" xmlns="http://www.w3.org/2000/svg">
<circle cx="15" cy="15" r="15" fill="#00365E"/>
<path d="M16.5353 14.5459C16.776 14.4162 17.0442 14.3477 17.3225 14.3477C17.7836 14.3477 18.2171 14.5362 18.5439 14.8784L19.2474 14.1379C20.9883 14.7803 23.0018 14.369 24.3936 12.9039C25.5646 11.6711 26.0264 9.97492 25.7799 8.37607C25.7527 8.19999 25.6343 8.05477 25.4731 7.99998C25.3119 7.94511 25.135 7.9897 25.0152 8.11586L23.9707 9.21553C23.12 10.1111 21.7408 10.1111 20.8902 9.21553C20.0394 8.32 20.0394 6.86796 20.8902 5.97243L21.9347 4.87275C22.0545 4.74659 22.0972 4.56031 22.0451 4.39054C21.9929 4.2207 21.8548 4.09633 21.6875 4.06774C20.1688 3.80821 18.5576 4.2944 17.3866 5.52721C15.9742 7.01416 15.5941 9.17508 16.2437 11.0263L14.718 12.6325L16.5353 14.5459Z" fill="white"/>
<path d="M13.7549 17.4565L11.9452 15.5513L5.61713 22.2133C4.79429 23.0796 4.79429 24.484 5.61713 25.3503C6.43996 26.2166 7.77402 26.2166 8.59686 25.3503L14.0521 19.6073C13.5019 19.0249 13.4027 18.1458 13.7549 17.4565Z" fill="white"/>
<path d="M17.7921 15.6778C17.6627 15.5416 17.493 15.4735 17.3234 15.4735C17.1538 15.4735 16.9842 15.5416 16.8548 15.6778L16.477 16.0756L9.74774 8.99117L10.0623 8.66004C10.3489 8.3584 10.3133 7.85802 9.98663 7.6048L7.24109 5.47607C6.97725 5.27156 6.6111 5.3006 6.3794 5.54452L5.21366 6.77186C4.98197 7.01578 4.95438 7.40133 5.14864 7.67902L7.17059 10.5695C7.41112 10.9133 7.88613 10.9511 8.17293 10.6491L8.48746 10.3179L15.2167 17.4023L14.8124 17.828C14.5535 18.1005 14.5535 18.5422 14.8124 18.8148L21.0203 25.3503C21.8431 26.2165 23.1772 26.2165 24 25.3503C24.8228 24.484 24.8228 23.0796 24 22.2133L17.7921 15.6778Z" fill="white"/>
<path d="M11.6251 20.4766L11.6251 20.4766C10.9403 19.9657 10.3609 19.4199 9.92486 18.8465C9.3516 18.0927 9 17.2536 9 16.3629V11.6167C9 11.0528 9.36033 10.528 9.92752 10.3526L11.6251 20.4766ZM11.6251 20.4766C12.765 21.3268 13.8795 21.8458 13.9532 21.8798L11.6251 20.4766ZM15.0466 21.8799C14.8735 21.9598 14.687 22 14.5 22C14.3127 22 14.1263 21.9596 13.9536 21.88L15.0466 21.8799ZM15.0466 21.8799C15.1159 21.848 16.2327 21.3286 17.3749 20.4766L17.375 20.4766C18.0598 19.9657 18.6391 19.4199 19.0752 18.8465L19.0752 18.8465C19.6485 18.0926 20 17.2535 20 16.3629V11.6167C20 11.053 19.6399 10.528 19.0725 10.3526C19.0724 10.3526 19.0724 10.3526 19.0724 10.3526L14.8854 9.05825L15.0466 21.8799ZM14.1148 9.05822L9.92754 10.3526L14.8853 9.05821C14.6342 8.98058 14.3658 8.98062 14.1148 9.05821C14.1148 9.05821 14.1148 9.05822 14.1148 9.05822Z" fill="white" stroke="#00365E" stroke-width="2"/>
<path d="M17 16.6807V18H12.3098V16.958L14.5645 14.8992C14.7826 14.6975 14.9289 14.5266 15.0034 14.3866C15.078 14.2409 15.1153 14.0952 15.1153 13.9496C15.1153 13.7591 15.0493 13.6106 14.9174 13.5042C14.7854 13.3978 14.5932 13.3445 14.3408 13.3445C14.117 13.3445 13.9105 13.395 13.7212 13.4958C13.5376 13.591 13.3855 13.7311 13.2651 13.916L12 13.2269C12.2352 12.8459 12.5651 12.5462 12.9897 12.3277C13.4142 12.1092 13.9162 12 14.4957 12C14.9547 12 15.3592 12.0728 15.7091 12.2185C16.0648 12.3641 16.3402 12.5742 16.5353 12.8487C16.7361 13.1176 16.8365 13.4314 16.8365 13.7899C16.8365 14.1092 16.7648 14.4118 16.6213 14.6975C16.4836 14.9776 16.214 15.2969 15.8124 15.6555L14.6764 16.6807H17Z" fill="#009846"/>
</svg>
