<svg width="30" height="30" viewBox="0 0 30 30" fill="none" xmlns="http://www.w3.org/2000/svg">
<circle cx="15" cy="15" r="15" fill="#00365E"/>
<path d="M16.183 11.7109C16.3362 11.6284 16.5068 11.5848 16.6839 11.5848C16.9773 11.5848 17.2532 11.7047 17.4612 11.9225L17.9088 11.4513C19.0167 11.8601 20.298 11.5984 21.1836 10.6661C21.9288 9.88155 22.2227 8.80217 22.0658 7.78473C22.0485 7.67269 21.9732 7.58027 21.8706 7.54541C21.768 7.51049 21.6554 7.53886 21.5792 7.61915L20.9145 8.31893C20.3732 8.8888 19.4955 8.8888 18.9542 8.31893C18.4128 7.74905 18.4128 6.82504 18.9542 6.25516L19.6189 5.55538C19.6952 5.4751 19.7223 5.35656 19.6891 5.24852C19.656 5.14044 19.568 5.0613 19.4616 5.04311C18.4952 4.87795 17.4699 5.18734 16.7247 5.97185C15.8259 6.91808 15.584 8.29319 15.9974 9.47119L15.0265 10.4934L16.183 11.7109Z" fill="white"/>
<path d="M14.4137 13.5631L13.262 12.3507L9.23512 16.5901C8.7115 17.1413 8.7115 18.0351 9.23512 18.5863C9.75873 19.1376 10.6077 19.1376 11.1313 18.5863L14.6027 14.9317C14.2526 14.5611 14.1895 14.0017 14.4137 13.5631Z" fill="white"/>
<path d="M16.9827 12.4313C16.9004 12.3447 16.7924 12.3013 16.6845 12.3013C16.5766 12.3013 16.4686 12.3447 16.3863 12.4313L16.1459 12.6844L11.8637 8.17625L12.0638 7.96553C12.2462 7.77358 12.2236 7.45517 12.0157 7.29402L10.2686 5.9394C10.1007 5.80926 9.86766 5.82774 9.72022 5.98296L8.97839 6.76398C8.83095 6.9192 8.8134 7.16455 8.93702 7.34126L10.2237 9.1806C10.3768 9.39939 10.679 9.42346 10.8615 9.23127L11.0617 9.02051L15.3439 13.5287L15.0866 13.7996C14.9218 13.973 14.9218 14.2541 15.0866 14.4275L19.037 18.5864C19.5606 19.1377 20.4096 19.1377 20.9332 18.5864C21.4568 18.0352 21.4568 17.1415 20.9332 16.5902L16.9827 12.4313Z" fill="white"/>
<path d="M12.1915 24.12C11.6995 24.12 11.2975 23.964 10.9855 23.652C10.6735 23.34 10.5175 22.911 10.5175 22.365C10.5175 21.999 10.5895 21.684 10.7335 21.42C10.8775 21.156 11.0755 20.955 11.3275 20.817C11.5855 20.679 11.8735 20.61 12.1915 20.61C12.5095 20.61 12.7945 20.679 13.0465 20.817C13.3045 20.955 13.5055 21.156 13.6495 21.42C13.7935 21.684 13.8655 21.999 13.8655 22.365C13.8655 22.911 13.7095 23.34 13.3975 23.652C13.0855 23.964 12.6835 24.12 12.1915 24.12ZM15.8905 20.7H17.4115L13.1095 27H11.5885L15.8905 20.7ZM12.1915 23.148C12.3055 23.148 12.3985 23.088 12.4705 22.968C12.5485 22.842 12.5875 22.641 12.5875 22.365C12.5875 22.089 12.5485 21.891 12.4705 21.771C12.3985 21.645 12.3055 21.582 12.1915 21.582C12.0775 21.582 11.9815 21.645 11.9035 21.771C11.8315 21.891 11.7955 22.089 11.7955 22.365C11.7955 22.641 11.8315 22.842 11.9035 22.968C11.9815 23.088 12.0775 23.148 12.1915 23.148ZM16.8085 27.09C16.3165 27.09 15.9145 26.934 15.6025 26.622C15.2905 26.31 15.1345 25.881 15.1345 25.335C15.1345 24.969 15.2065 24.654 15.3505 24.39C15.4945 24.126 15.6925 23.925 15.9445 23.787C16.2025 23.649 16.4905 23.58 16.8085 23.58C17.1265 23.58 17.4115 23.649 17.6635 23.787C17.9215 23.925 18.1225 24.126 18.2665 24.39C18.4105 24.654 18.4825 24.969 18.4825 25.335C18.4825 25.881 18.3265 26.31 18.0145 26.622C17.7025 26.934 17.3005 27.09 16.8085 27.09ZM16.8085 26.118C16.9225 26.118 17.0155 26.058 17.0875 25.938C17.1655 25.812 17.2045 25.611 17.2045 25.335C17.2045 25.059 17.1655 24.861 17.0875 24.741C17.0155 24.615 16.9225 24.552 16.8085 24.552C16.6945 24.552 16.5985 24.615 16.5205 24.741C16.4485 24.861 16.4125 25.059 16.4125 25.335C16.4125 25.611 16.4485 25.812 16.5205 25.938C16.5985 26.058 16.6945 26.118 16.8085 26.118Z" fill="white"/>
</svg>
