<svg width="30" height="30" viewBox="0 0 30 30" fill="none" xmlns="http://www.w3.org/2000/svg">
<circle cx="15" cy="15" r="15" fill="#3EFF74"/>
<path d="M9.0071 12.7458L10.1011 18.9501L8.38161 19.2533L5.52699 16.8505L6.02398 19.669L3.98542 20.0285L2.89144 13.8242L4.61091 13.521L7.46553 15.9238L6.96854 13.1053L9.0071 12.7458ZM15.9892 16.2852L16.2674 17.8628L11.1089 18.7724L10.0149 12.5681L15.0581 11.6789L15.3363 13.2565L12.3494 13.7832L12.4776 14.51L15.1011 14.0474L15.3668 15.5541L12.7432 16.0167L12.887 16.8322L15.9892 16.2852ZM25.9873 9.75175L25.0959 16.3061L22.8535 16.7015L21.2675 13.5633L20.7972 17.0641L18.5548 17.4595L15.4755 11.6053L17.6293 11.2255L19.3326 14.5624L19.8539 10.8332L21.7773 10.4941L23.4884 13.8753L24.0019 10.1018L25.9873 9.75175Z" fill="white"/>
</svg>
