<svg width="30" height="30" viewBox="0 0 30 30" fill="none" xmlns="http://www.w3.org/2000/svg">
<circle cx="15" cy="15" r="15" fill="#1E4BC6"/>
<path d="M13.7832 6.18685C10.4827 6.90678 7.82305 9.87187 7.17226 13.5495C5.94371 20.489 11.5452 25.6622 15.7654 24.9311C17.1334 24.6936 17.8041 22.9049 17.1766 21.5281C16.4096 19.8433 17.5053 17.8765 19.1987 17.8765H21.8451C23.0338 17.8765 23.9967 16.778 24 15.4532C23.9834 9.60468 19.222 5.00304 13.7832 6.18685ZM10.1872 17.8765C9.59946 17.8765 9.12465 17.3458 9.12465 16.689C9.12465 16.0321 9.59946 15.5015 10.1872 15.5015C10.7749 15.5015 11.2497 16.0321 11.2497 16.689C11.2497 17.3458 10.7749 17.8765 10.1872 17.8765ZM11.2497 13.1264C10.662 13.1264 10.1872 12.5957 10.1872 11.9389C10.1872 11.282 10.662 10.7514 11.2497 10.7514C11.8374 10.7514 12.3122 11.282 12.3122 11.9389C12.3122 12.5957 11.8374 13.1264 11.2497 13.1264ZM15.4998 10.7514C14.9121 10.7514 14.4373 10.2207 14.4373 9.56386C14.4373 8.90701 14.9121 8.37634 15.4998 8.37634C16.0875 8.37634 16.5623 8.90701 16.5623 9.56386C16.5623 10.2207 16.0875 10.7514 15.4998 10.7514ZM19.7499 13.1264C19.1622 13.1264 18.6874 12.5957 18.6874 11.9389C18.6874 11.282 19.1622 10.7514 19.7499 10.7514C20.3376 10.7514 20.8124 11.282 20.8124 11.9389C20.8124 12.5957 20.3376 13.1264 19.7499 13.1264Z" fill="#FFE600"/>
</svg>
