<svg width="30" height="30" viewBox="0 0 30 30" fill="none" xmlns="http://www.w3.org/2000/svg">
<circle cx="15" cy="15" r="15" fill="#009846"/>
<path fill-rule="evenodd" clip-rule="evenodd" d="M16.3481 9.58487C16.3481 9.44767 16.3481 9.44767 16.624 9.17329L17.4519 8.48732C17.7278 8.21293 18.4177 7.66416 18.6937 7.52696C19.1076 7.38977 19.5215 7.52696 19.7975 7.80135C20.4873 8.48732 20.0734 9.44767 19.2456 9.58487C18.8316 9.72206 16.762 9.58487 16.3481 9.58487ZM12.7608 9.58487C12.2089 9.58487 11.7949 9.58487 11.243 9.58487C10.4152 9.58487 9.31139 9.72206 9.03544 8.8989C8.75949 7.93854 9.72531 7.11538 10.6911 7.66416L11.243 8.21293C11.381 8.35012 11.381 8.35012 11.381 8.35012L12.4848 9.44767C12.6228 9.58487 12.6228 9.44767 12.6228 9.72206L12.7608 9.58487ZM21.1772 9.58487C21.1772 9.44767 21.3152 9.31048 21.3152 9.03609C21.3152 8.8989 21.4532 8.62451 21.3152 8.35012C21.3152 7.93854 21.1772 7.52696 21.0392 7.25257C20.3494 6.15502 18.8316 5.74344 17.7278 6.42941L17.1759 6.97819L17.038 7.11538C16.9 7.11538 16.9 7.25257 16.9 7.25257L15.9342 8.07574C15.6582 7.80135 15.2443 7.52696 14.6924 7.52696C14.1405 7.52696 13.7266 7.80135 13.4506 8.07574C13.3127 7.93854 13.3127 7.93854 13.3127 7.93854L11.7949 6.5666C11.657 6.5666 11.657 6.42941 11.657 6.42941C11.519 6.29222 11.381 6.29222 11.243 6.15502C9.86329 5.60625 8.06962 6.5666 8.06962 8.21293C8.06962 8.76171 8.20759 9.03609 8.34557 9.44767C7.37975 9.44767 6 9.17329 6 10.8196C6 11.094 6 12.4659 6 12.6031C6.13797 13.1519 6.82785 13.0147 7.51772 13.0147C12.4848 13.0147 17.5899 13.0147 22.5569 13.0147C23.1088 13.0147 23.7987 13.1519 24.0747 12.6031C24.2126 12.3287 24.0747 11.094 24.0747 10.8196C24.0747 9.31048 22.5569 9.44767 21.7291 9.44767L21.1772 9.58487ZM6.95453 14.4535C6.95453 14.7279 6.95453 22.0707 6.95453 22.3451C6.95453 22.7567 6.95453 22.8939 7.0925 23.3055C7.50642 24.1286 8.61022 23.9914 9.57604 23.9914H13.7153V14.5907H6.95453V14.4535ZM20.4873 23.8542C21.0392 23.8542 22.0051 23.9914 22.419 23.717C22.9709 23.4427 23.1088 22.8939 23.1088 22.3451C23.1088 22.0707 23.1088 14.8651 23.1088 14.5907H16.3481V23.8542H20.4873Z" fill="white"/>
</svg>
