<svg width="26" height="30" viewBox="0 0 26 30" fill="none" xmlns="http://www.w3.org/2000/svg">
<path d="M24.6665 3.56736L12.8991 0.0370898C12.7344 -0.0123633 12.5588 -0.0123633 12.3939 0.0370898L0.626309 3.56736C0.25459 3.67887 0 4.02105 0 4.40918V17.3535C0 19.0371 0.681621 20.7606 2.02582 22.476C3.05244 23.7862 4.47281 25.1018 6.24733 26.3863C9.2284 28.5442 12.1639 29.868 12.2874 29.9232C12.4016 29.9744 12.5241 30 12.6465 30C12.769 30 12.8914 29.9745 13.0056 29.9232C13.1291 29.868 16.0645 28.5442 19.0456 26.3863C20.8201 25.1018 22.2404 23.7862 23.2671 22.476C24.6113 20.7606 25.2928 19.0372 25.2928 17.3535V4.40918C25.2928 4.02105 25.0383 3.67887 24.6665 3.56736Z" fill="#005E26"/>
<path d="M12.3689 9.435C14.0349 9.435 15.2646 9.775 16.0579 10.455C16.8626 11.135 17.2649 12.0417 17.2649 13.175C17.2649 13.9117 17.0722 14.5917 16.6869 15.215C16.3129 15.827 15.7349 16.32 14.9529 16.694C14.1822 17.0567 13.2246 17.238 12.0799 17.238C11.2412 17.238 10.4082 17.136 9.58091 16.932C8.76491 16.728 8.06225 16.439 7.47291 16.065L8.67991 13.532C9.15591 13.8493 9.67725 14.093 10.2439 14.263C10.8219 14.433 11.3999 14.518 11.9779 14.518C12.5559 14.518 13.0149 14.4103 13.3549 14.195C13.7062 13.9683 13.8819 13.6567 13.8819 13.26C13.8819 12.8633 13.7119 12.563 13.3719 12.359C13.0319 12.155 12.4312 12.053 11.5699 12.053H8.33991L8.93491 5.1H16.5169V7.701H11.7229L11.5699 9.435H12.3689Z" fill="white"/>
<path d="M9.7615 19.305H9.0685C9.0405 19.6363 9.00783 19.9653 8.9705 20.292C8.93316 20.6187 8.8725 20.9127 8.7885 21.174C8.70916 21.4307 8.5995 21.6407 8.4595 21.804C8.3195 21.9627 8.1375 22.042 7.9135 22.042C7.64283 22.042 7.4515 22.007 7.3395 21.937L7.4515 21.181C7.52616 21.209 7.59616 21.223 7.6615 21.223C7.75483 21.223 7.8365 21.1833 7.9065 21.104C7.9765 21.0247 8.03483 20.8823 8.0815 20.677C8.13283 20.4717 8.1725 20.194 8.2005 19.844C8.23316 19.4893 8.2565 19.0413 8.2705 18.5H10.6715V22H9.7615V19.305ZM14.26 21.699C14.12 21.811 13.9287 21.9067 13.686 21.986C13.448 22.0607 13.1937 22.098 12.923 22.098C12.3584 22.098 11.9454 21.9347 11.684 21.608C11.4227 21.2767 11.292 20.824 11.292 20.25C11.292 19.634 11.439 19.172 11.733 18.864C12.027 18.556 12.44 18.402 12.972 18.402C13.1494 18.402 13.322 18.4253 13.49 18.472C13.658 18.5187 13.8074 18.5957 13.938 18.703C14.0687 18.8103 14.1737 18.955 14.253 19.137C14.3324 19.319 14.372 19.5453 14.372 19.816C14.372 19.914 14.365 20.019 14.351 20.131C14.3417 20.243 14.3254 20.3597 14.302 20.481H12.202C12.216 20.775 12.2907 20.9967 12.426 21.146C12.566 21.2953 12.79 21.37 13.098 21.37C13.2894 21.37 13.4597 21.342 13.609 21.286C13.763 21.2253 13.8797 21.1647 13.959 21.104L14.26 21.699ZM12.958 19.13C12.72 19.13 12.5427 19.2023 12.426 19.347C12.314 19.487 12.2464 19.676 12.223 19.914H13.525C13.5437 19.662 13.504 19.4683 13.406 19.333C13.3127 19.1977 13.1634 19.13 12.958 19.13ZM17.5347 19.305H16.5477V22H15.6097V19.305H14.6227V18.5H17.5347V19.305Z" fill="white"/>
</svg>
