<svg width="26" height="30" viewBox="0 0 26 30" fill="none" xmlns="http://www.w3.org/2000/svg">
<path d="M24.6665 3.56736L12.8991 0.0370898C12.7344 -0.0123633 12.5588 -0.0123633 12.3939 0.0370898L0.626309 3.56736C0.25459 3.67887 0 4.02105 0 4.40918V17.3535C0 19.0371 0.681621 20.7606 2.02582 22.476C3.05244 23.7862 4.47281 25.1018 6.24733 26.3863C9.2284 28.5442 12.1639 29.868 12.2874 29.9232C12.4016 29.9744 12.5241 30 12.6465 30C12.769 30 12.8914 29.9745 13.0056 29.9232C13.1291 29.868 16.0645 28.5442 19.0456 26.3863C20.8201 25.1018 22.2404 23.7862 23.2671 22.476C24.6113 20.7606 25.2928 19.0372 25.2928 17.3535V4.40918C25.2928 4.02105 25.0383 3.67887 24.6665 3.56736Z" fill="#005E26"/>
<path d="M8.91433 6.1V18H5.54833V8.701H3.33833V6.1H8.91433ZM15.957 18.238C14.937 18.238 14.0303 17.9943 13.237 17.507C12.4436 17.0197 11.8203 16.3113 11.367 15.382C10.925 14.4413 10.704 13.3307 10.704 12.05C10.704 10.7693 10.925 9.66433 11.367 8.735C11.8203 7.79433 12.4436 7.08033 13.237 6.593C14.0303 6.10567 14.937 5.862 15.957 5.862C16.9656 5.862 17.8666 6.10567 18.66 6.593C19.4533 7.08033 20.071 7.79433 20.513 8.735C20.9663 9.66433 21.193 10.7693 21.193 12.05C21.193 13.3307 20.9663 14.4413 20.513 15.382C20.071 16.3113 19.4533 17.0197 18.66 17.507C17.8666 17.9943 16.9656 18.238 15.957 18.238ZM15.957 15.484C16.5236 15.484 16.9713 15.212 17.3 14.668C17.64 14.1127 17.81 13.24 17.81 12.05C17.81 10.86 17.64 9.993 17.3 9.449C16.9713 8.89367 16.5236 8.616 15.957 8.616C15.379 8.616 14.92 8.89367 14.58 9.449C14.2513 9.993 14.087 10.86 14.087 12.05C14.087 13.24 14.2513 14.1127 14.58 14.668C14.92 15.212 15.379 15.484 15.957 15.484Z" fill="white"/>
<path d="M9.7615 20.305H9.0685C9.0405 20.6363 9.00783 20.9653 8.9705 21.292C8.93316 21.6187 8.8725 21.9127 8.7885 22.174C8.70916 22.4307 8.5995 22.6407 8.4595 22.804C8.3195 22.9627 8.1375 23.042 7.9135 23.042C7.64283 23.042 7.4515 23.007 7.3395 22.937L7.4515 22.181C7.52616 22.209 7.59616 22.223 7.6615 22.223C7.75483 22.223 7.8365 22.1833 7.9065 22.104C7.9765 22.0247 8.03483 21.8823 8.0815 21.677C8.13283 21.4717 8.1725 21.194 8.2005 20.844C8.23316 20.4893 8.2565 20.0413 8.2705 19.5H10.6715V23H9.7615V20.305ZM14.26 22.699C14.12 22.811 13.9287 22.9067 13.686 22.986C13.448 23.0607 13.1937 23.098 12.923 23.098C12.3584 23.098 11.9454 22.9347 11.684 22.608C11.4227 22.2767 11.292 21.824 11.292 21.25C11.292 20.634 11.439 20.172 11.733 19.864C12.027 19.556 12.44 19.402 12.972 19.402C13.1494 19.402 13.322 19.4253 13.49 19.472C13.658 19.5187 13.8074 19.5957 13.938 19.703C14.0687 19.8103 14.1737 19.955 14.253 20.137C14.3324 20.319 14.372 20.5453 14.372 20.816C14.372 20.914 14.365 21.019 14.351 21.131C14.3417 21.243 14.3254 21.3597 14.302 21.481H12.202C12.216 21.775 12.2907 21.9967 12.426 22.146C12.566 22.2953 12.79 22.37 13.098 22.37C13.2894 22.37 13.4597 22.342 13.609 22.286C13.763 22.2253 13.8797 22.1647 13.959 22.104L14.26 22.699ZM12.958 20.13C12.72 20.13 12.5427 20.2023 12.426 20.347C12.314 20.487 12.2464 20.676 12.223 20.914H13.525C13.5437 20.662 13.504 20.4683 13.406 20.333C13.3127 20.1977 13.1634 20.13 12.958 20.13ZM17.5347 20.305H16.5477V23H15.6097V20.305H14.6227V19.5H17.5347V20.305Z" fill="white"/>
</svg>
