<svg width="26" height="30" viewBox="0 0 26 30" fill="none" xmlns="http://www.w3.org/2000/svg">
<path d="M24.6665 3.56736L12.8991 0.0370898C12.7344 -0.0123633 12.5588 -0.0123633 12.3939 0.0370898L0.626309 3.56736C0.25459 3.67887 0 4.02105 0 4.40918V17.3535C0 19.0371 0.681621 20.7606 2.02582 22.476C3.05244 23.7862 4.47281 25.1018 6.24733 26.3863C9.2284 28.5442 12.1639 29.868 12.2874 29.9232C12.4016 29.9744 12.5241 30 12.6465 30C12.769 30 12.8914 29.9745 13.0056 29.9232C13.1291 29.868 16.0645 28.5442 19.0456 26.3863C20.8201 25.1018 22.2404 23.7862 23.2671 22.476C24.6113 20.7606 25.2928 19.0372 25.2928 17.3535V4.40918C25.2928 4.02105 25.0383 3.67887 24.6665 3.56736Z" fill="#005E26"/>
<path d="M14.0594 9.86C15.0454 10.064 15.7991 10.472 16.3204 11.084C16.8531 11.6847 17.1194 12.4157 17.1194 13.277C17.1194 13.9797 16.9268 14.6313 16.5414 15.232C16.1674 15.8327 15.5894 16.32 14.8074 16.694C14.0368 17.0567 13.0791 17.238 11.9344 17.238C11.0958 17.238 10.2628 17.136 9.43542 16.932C8.61942 16.728 7.91108 16.439 7.31042 16.065L8.53442 13.532C8.99908 13.8493 9.52042 14.093 10.0984 14.263C10.6878 14.433 11.2658 14.518 11.8324 14.518C12.4104 14.518 12.8694 14.4103 13.2094 14.195C13.5494 13.9797 13.7194 13.6737 13.7194 13.277C13.7194 12.5063 13.1131 12.121 11.9004 12.121H10.4894V9.996L12.6144 7.701H7.92242V5.1H16.5244V7.208L14.0594 9.86Z" fill="white"/>
<path d="M8.26596 19.305H6.94296V22H6.00496V18.5H8.26596V19.305ZM8.41411 20.25C8.41411 19.6573 8.55877 19.2023 8.84811 18.885C9.13744 18.563 9.54344 18.402 10.0661 18.402C10.3461 18.402 10.5888 18.4463 10.7941 18.535C10.9994 18.6237 11.1698 18.7497 11.3051 18.913C11.4404 19.0717 11.5408 19.2653 11.6061 19.494C11.6761 19.7227 11.7111 19.9747 11.7111 20.25C11.7111 20.8427 11.5664 21.3 11.2771 21.622C10.9924 21.9393 10.5888 22.098 10.0661 22.098C9.78611 22.098 9.54344 22.0537 9.33811 21.965C9.13277 21.8763 8.96011 21.7527 8.82011 21.594C8.68477 21.4307 8.58211 21.2347 8.51211 21.006C8.44677 20.7773 8.41411 20.5253 8.41411 20.25ZM9.35211 20.25C9.35211 20.404 9.36611 20.5463 9.39411 20.677C9.42211 20.8077 9.46411 20.922 9.52011 21.02C9.57611 21.118 9.64844 21.195 9.73711 21.251C9.83044 21.3023 9.94011 21.328 10.0661 21.328C10.3041 21.328 10.4814 21.2417 10.5981 21.069C10.7148 20.8963 10.7731 20.6233 10.7731 20.25C10.7731 19.928 10.7194 19.669 10.6121 19.473C10.5048 19.2723 10.3228 19.172 10.0661 19.172C9.84211 19.172 9.66711 19.256 9.54111 19.424C9.41511 19.592 9.35211 19.8673 9.35211 20.25ZM15.8209 22.798H15.1559L15.0509 22H12.6989L12.5939 22.798H11.9289V21.195H12.3419C12.3792 21.1437 12.4259 21.0573 12.4819 20.936C12.5425 20.81 12.6009 20.6397 12.6569 20.425C12.7175 20.2103 12.7689 19.9443 12.8109 19.627C12.8529 19.3097 12.8739 18.934 12.8739 18.5H15.3099V21.195H15.8209V22.798ZM14.3999 21.237V19.27H13.6649C13.6555 19.438 13.6392 19.6177 13.6159 19.809C13.5925 19.9957 13.5622 20.1777 13.5249 20.355C13.4922 20.5323 13.4525 20.698 13.4059 20.852C13.3592 21.006 13.3079 21.1343 13.2519 21.237H14.3999ZM16.2994 18.703C16.4861 18.619 16.7077 18.5537 16.9644 18.507C17.2211 18.4557 17.4894 18.43 17.7694 18.43C18.0121 18.43 18.2151 18.4603 18.3784 18.521C18.5417 18.577 18.6701 18.6587 18.7634 18.766C18.8614 18.8733 18.9291 19.0017 18.9664 19.151C19.0084 19.3003 19.0294 19.4683 19.0294 19.655C19.0294 19.8603 19.0224 20.068 19.0084 20.278C18.9944 20.4833 18.9851 20.6863 18.9804 20.887C18.9804 21.0877 18.9874 21.2837 19.0014 21.475C19.0154 21.6617 19.0504 21.839 19.1064 22.007H18.3644L18.2174 21.524H18.1824C18.0891 21.6687 17.9584 21.7947 17.7904 21.902C17.6271 22.0047 17.4147 22.056 17.1534 22.056C16.9901 22.056 16.8431 22.0327 16.7124 21.986C16.5817 21.9347 16.4697 21.8647 16.3764 21.776C16.2831 21.6827 16.2107 21.5753 16.1594 21.454C16.1081 21.328 16.0824 21.188 16.0824 21.034C16.0824 20.8193 16.1291 20.6397 16.2224 20.495C16.3204 20.3457 16.4581 20.2267 16.6354 20.138C16.8174 20.0447 17.0321 19.9817 17.2794 19.949C17.5314 19.9117 17.8114 19.9 18.1194 19.914C18.1521 19.6527 18.1334 19.466 18.0634 19.354C17.9934 19.2373 17.8371 19.179 17.5944 19.179C17.4124 19.179 17.2187 19.1977 17.0134 19.235C16.8127 19.2723 16.6471 19.3213 16.5164 19.382L16.2994 18.703ZM17.4544 21.307C17.6364 21.307 17.7811 21.2673 17.8884 21.188C17.9957 21.104 18.0751 21.0153 18.1264 20.922V20.467C17.9817 20.453 17.8417 20.4507 17.7064 20.46C17.5757 20.4693 17.4591 20.4903 17.3564 20.523C17.2537 20.5557 17.1721 20.6023 17.1114 20.663C17.0507 20.7237 17.0204 20.8007 17.0204 20.894C17.0204 21.0247 17.0577 21.1273 17.1324 21.202C17.2117 21.272 17.3191 21.307 17.4544 21.307Z" fill="white"/>
</svg>
