<svg width="17" height="18" viewBox="0 0 17 18" fill="none" xmlns="http://www.w3.org/2000/svg">
<path d="M16.2728 15.5622L13.0602 12.0574C12.9151 11.8992 12.7186 11.8113 12.5124 11.8113H11.9871C12.8765 10.5705 13.4049 9.00967 13.4049 7.31179C13.4049 3.27273 10.4049 0 6.70247 0C3 0 0 3.27273 0 7.31179C0 11.3508 3 14.6236 6.70247 14.6236C8.25886 14.6236 9.68958 14.0471 10.8271 13.0768V13.6498C10.8271 13.8748 10.9076 14.0892 11.0526 14.2474L14.2653 17.7522C14.5682 18.0826 15.058 18.0826 15.3577 17.7522L16.2696 16.7573C16.5725 16.4269 16.5725 15.8926 16.2728 15.5622ZM6.70247 11.8113C4.42428 11.8113 2.57787 9.80061 2.57787 7.31179C2.57787 4.82648 4.42105 2.81223 6.70247 2.81223C8.98067 2.81223 10.8271 4.82297 10.8271 7.31179C10.8271 9.79709 8.98389 11.8113 6.70247 11.8113Z" fill="#555555"/>
</svg>
