<svg width="15" height="14" viewBox="0 0 15 14" fill="none" xmlns="http://www.w3.org/2000/svg">
<path d="M8.62236 13.0208L7.87914 13.7302C7.56445 14.0306 7.05557 14.0306 6.74423 13.7302L0.236023 7.52101C-0.0786743 7.22062 -0.0786743 6.73487 0.236023 6.43768L6.74423 0.225295C7.05892 -0.0750982 7.56779 -0.0750982 7.87914 0.225295L8.62236 0.934733C8.94041 1.23832 8.93371 1.73365 8.60897 2.03085L4.57482 5.69948H14.1965C14.6418 5.69948 15 6.04141 15 6.46644V7.48905C15 7.91408 14.6418 8.25601 14.1965 8.25601H4.57482L8.60897 11.9246C8.93706 12.2218 8.94376 12.7172 8.62236 13.0208Z" fill="white"/>
</svg>
