<svg width="15" height="14" viewBox="0 0 15 14" fill="none" xmlns="http://www.w3.org/2000/svg">
<path d="M6.37764 13.0208L7.12086 13.7302C7.43555 14.0306 7.94443 14.0306 8.25577 13.7302L14.764 7.52101C15.0787 7.22062 15.0787 6.73487 14.764 6.43768L8.25577 0.225295C7.94108 -0.0750982 7.43221 -0.0750982 7.12086 0.225295L6.37764 0.934733C6.05959 1.23832 6.06629 1.73365 6.39103 2.03085L10.4252 5.69948H0.803481C0.358218 5.69948 -9.53674e-07 6.04141 -9.53674e-07 6.46644V7.48905C-9.53674e-07 7.91408 0.358218 8.25601 0.803481 8.25601H10.4252L6.39103 11.9246C6.06294 12.2218 6.05624 12.7172 6.37764 13.0208Z" fill="white"/>
</svg>
