<svg width="30" height="30" viewBox="0 0 30 30" fill="none" xmlns="http://www.w3.org/2000/svg">
<circle cx="15" cy="15" r="15" fill="#FFB23E"/>
<path d="M9.41612 19.1L14.5298 22.8149C14.695 22.935 14.8972 23 15.1053 23H16.0526C16.5759 23 17 22.5971 17 22.1V8.9C17 8.40294 16.5759 8 16.0526 8H15.1053C14.8972 8 14.695 8.06503 14.5298 8.1851L9.41612 11.9H6.73684C5.77913 11.9 5 12.6402 5 13.55V17.45C5 18.3598 5.77913 19.1 6.73684 19.1H9.41612ZM15.1053 10.033V20.967L10.6842 17.7553V13.2448L15.1053 10.033ZM6.89474 13.7H8.78947V17.3H6.89474V13.7Z" fill="white"/>
<path d="M24.7204 12.2796C24.3476 11.9068 23.7433 11.9068 23.3705 12.2796L21.5 14.1501L19.6295 12.2796C19.2567 11.9068 18.6524 11.9068 18.2796 12.2796C17.9068 12.6524 17.9068 13.2568 18.2796 13.6296L20.15 15.5L18.2796 17.3705C17.9068 17.7433 17.9068 18.3476 18.2796 18.7204C18.4659 18.9068 18.7102 19 18.9545 19C19.1988 19 19.4431 18.9068 19.6295 18.7204L21.5 16.8499L23.3705 18.7204C23.5569 18.9068 23.8011 19 24.0454 19C24.2898 19 24.534 18.9068 24.7204 18.7204C25.0932 18.3477 25.0932 17.7433 24.7204 17.3705L22.8499 15.5L24.7204 13.6296C25.0932 13.2568 25.0932 12.6524 24.7204 12.2796Z" fill="white"/>
</svg>
