<svg width="30" height="30" viewBox="0 0 30 30" fill="none" xmlns="http://www.w3.org/2000/svg">
<path d="M30 15C30 6.71573 23.2843 0 15 0C6.71573 0 0 6.71573 0 15C0 23.2843 6.71573 30 15 30C23.2843 30 30 23.2843 30 15Z" fill="#1E4BC6"/>
<path fill-rule="evenodd" clip-rule="evenodd" d="M10.4293 25.5861L10.6628 25.7028C11.013 25.7028 11.013 25.8195 11.3632 25.5861C11.7134 25.2359 12.297 24.4187 12.6472 24.1853C12.9974 24.5355 13.4643 25.5861 13.8145 25.7028C14.1647 25.8195 14.5149 25.5861 14.3982 25.1191C14.2815 24.8857 14.048 24.6522 13.9313 24.302C13.8145 24.0685 13.5811 23.8351 13.4643 23.4849C13.2309 23.1347 13.3476 23.2514 13.8145 22.6678C14.1647 22.2008 14.7484 21.3837 15.2153 21.0335C15.4488 21.1503 16.9663 23.1347 17.083 23.2514C17.083 23.4849 15.6822 25.0024 15.9157 25.3526C16.0324 25.5861 16.2659 25.5861 16.4994 25.5861C16.9663 25.4693 17.4332 24.302 17.6667 24.0685C18.3671 24.7689 18.7173 25.9362 19.5344 25.5861C20.118 25.3526 19.6511 24.8857 19.4176 24.6522C19.1842 24.4187 18.9507 23.9518 18.6005 23.7184C18.7173 23.6016 18.9507 23.7184 19.1842 23.7184C19.5344 23.7184 20.7017 23.8351 20.9352 23.7184C21.4021 23.4849 21.1686 23.1347 20.585 23.018L18.2503 22.9012C17.9001 22.9012 17.9001 22.9012 17.7834 22.6678C17.4332 22.2008 16.3826 21.0335 16.1492 20.6833C16.4994 20.5666 18.7173 20.6833 19.3009 20.6833C19.4176 20.6833 19.4176 20.6833 19.5344 20.6833C19.7678 20.6833 19.7678 20.8001 20.0013 20.9168C20.118 21.0335 20.2348 21.1503 20.3515 21.267C20.585 21.5005 21.2853 22.3176 21.6355 22.4343C21.7523 22.4343 22.1025 22.4343 22.1025 22.2008C22.3359 21.8506 21.1686 20.9168 20.9352 20.5666C21.1686 20.5666 22.8029 20.5666 23.2698 20.5666C23.5032 20.5666 23.8534 20.4499 23.8534 20.2164C23.8534 19.9829 23.7367 19.8662 23.5032 19.8662H7.0441C6.11025 19.9829 6.46045 20.5666 7.0441 20.5666C7.51103 20.5666 7.97796 20.5666 8.56161 20.5666C8.79508 20.5666 9.14527 20.4499 9.262 20.6833C9.02854 21.0335 8.09469 21.7339 8.09469 22.0841C8.09469 22.3176 8.32815 22.4343 8.56161 22.4343C9.02854 22.4343 9.37873 21.8506 9.6122 21.6172C9.84566 21.3837 10.3126 20.8001 10.546 20.6833C10.6628 20.6833 12.9974 20.6833 13.1141 20.6833C13.3476 20.6833 13.6978 20.6833 13.9313 20.6833C13.9313 20.8001 12.7639 22.3176 12.6472 22.4343C12.4138 22.6678 12.4138 22.9012 12.0636 22.9012L10.6628 23.018C10.3126 23.018 9.84566 23.018 9.49547 23.1347C8.91181 23.2514 9.02854 23.7184 9.262 23.8351C9.49547 23.9518 10.1959 23.8351 10.4293 23.8351H11.2464C11.3632 23.8351 11.3632 23.8351 11.4799 23.8351L10.4293 25.2359C10.3126 25.4693 10.3126 25.4693 10.4293 25.7028V25.5861Z" fill="#78DAFF"/>
<path fill-rule="evenodd" clip-rule="evenodd" d="M17.4332 8.65998C18.2503 9.1269 18.7172 9.94402 19.0674 10.6444H17.9001C17.6666 10.1775 17.3164 9.71056 16.8495 9.4771C15.4487 8.54324 13.3476 8.77671 12.4137 10.1775C12.297 10.2942 12.1803 10.5277 12.0635 10.7611H10.8962C11.0129 10.4109 11.2464 9.94402 11.4799 9.59383C12.8807 7.84286 15.5655 7.37593 17.5499 8.65998H17.4332ZM24.5538 8.89344C24.6705 9.1269 24.4371 9.4771 24.2036 9.59383L20.9351 10.6444C20.5849 10.7611 20.3515 10.6444 20.2347 10.2942C20.118 10.0608 20.3515 9.71056 20.5849 9.59383L23.8534 8.54324C24.2036 8.42651 24.4371 8.54324 24.5538 8.89344ZM5.2931 9.01017C5.40983 8.77671 5.76003 8.54324 5.99349 8.65998L9.37871 9.59383C9.7289 9.71056 9.84563 9.94402 9.7289 10.2942C9.7289 10.4109 9.49544 10.5277 9.37871 10.6444H9.02851L5.6433 9.71056C5.2931 9.59383 5.17637 9.36036 5.2931 9.01017ZM8.91178 4.34091C9.14524 4.22418 9.49544 4.22418 9.7289 4.45764L11.8301 7.02573C12.0635 7.2592 11.9468 7.60939 11.7133 7.72612C11.4799 7.84286 11.1297 7.84286 10.8962 7.60939L8.79505 5.0413C8.56159 4.80784 8.67832 4.45764 8.91178 4.34091ZM14.8651 2.47321C15.2153 2.47321 15.4487 2.70667 15.4487 2.94013V6.20861C15.4487 6.44208 15.2153 6.67554 14.8651 6.67554C14.5149 6.67554 14.2814 6.44208 14.2814 6.20861V2.94013C14.2814 2.70667 14.5149 2.47321 14.8651 2.47321ZM20.8184 4.22418C21.0519 4.34091 21.1686 4.6911 20.9351 4.92457L18.9507 7.49266C18.7172 7.72612 18.367 7.72612 18.1336 7.60939C17.9001 7.49266 17.7834 7.14247 18.0168 6.909L20.0013 4.34091C20.2347 4.10745 20.5849 4.10745 20.8184 4.22418Z" fill="#FE5000"/>
<path d="M6.69741 13.6002H5.06518V18.2248H3.96903V13.6002H2.3288V12.624H6.69741V13.6002Z" fill="white"/>
<path d="M7.26837 12.624H10.5888V13.6002H8.36453V14.9044H10.3888V15.8805H8.36453V17.2487H10.6288V18.2248H7.26837V12.624Z" fill="white"/>
<path d="M11.4486 12.68C11.5713 12.6587 11.702 12.64 11.8407 12.624C11.9847 12.6027 12.1261 12.5867 12.2648 12.576C12.4088 12.5654 12.5475 12.5574 12.6808 12.552C12.8142 12.5467 12.9369 12.544 13.0489 12.544C13.3102 12.544 13.5663 12.568 13.817 12.616C14.073 12.664 14.2997 12.7467 14.4971 12.8641C14.6998 12.9814 14.8598 13.1441 14.9771 13.3521C15.0998 13.5548 15.1612 13.8109 15.1612 14.1203C15.1612 14.579 15.0545 14.9524 14.8411 15.2404C14.6278 15.5285 14.3424 15.7285 13.985 15.8405L14.3771 16.0885L15.6572 18.2248H14.3931L13.1209 16.0325L12.5448 15.9285V18.2248H11.4486V12.68ZM13.1289 13.5202C13.0169 13.5202 12.9049 13.5228 12.7928 13.5282C12.6862 13.5335 12.6035 13.5442 12.5448 13.5602V15.1844H13.0089C13.3129 15.1844 13.5556 15.1151 13.737 14.9764C13.9183 14.8377 14.009 14.6083 14.009 14.2883C14.009 14.0482 13.9343 13.8615 13.785 13.7282C13.6356 13.5895 13.4169 13.5202 13.1289 13.5202Z" fill="white"/>
<path d="M20.6064 15.3204L20.7265 14.2083H20.6785L20.3344 15.1044L19.1422 17.1927H18.7902L17.534 15.0964L17.182 14.2083H17.142L17.302 15.3124V18.2248H16.2618V12.624H17.262L18.7582 15.1844L19.0222 15.8245H19.0542L19.2943 15.1684L20.7105 12.624H21.7026V18.2248H20.6064V15.3204Z" fill="white"/>
<path d="M22.4851 15.4244C22.4851 14.491 22.6905 13.7735 23.1012 13.2721C23.512 12.7654 24.0987 12.512 24.8615 12.512C25.2615 12.512 25.6109 12.5814 25.9096 12.7201C26.2083 12.8587 26.4564 13.0561 26.6537 13.3121C26.8511 13.5682 26.9978 13.8749 27.0938 14.2323C27.1898 14.5897 27.2378 14.987 27.2378 15.4244C27.2378 16.3579 27.0298 17.078 26.6137 17.5847C26.203 18.0861 25.6189 18.3368 24.8615 18.3368C24.4561 18.3368 24.104 18.2675 23.8053 18.1288C23.5066 17.9901 23.2586 17.7928 23.0612 17.5367C22.8692 17.2807 22.7252 16.974 22.6292 16.6166C22.5332 16.2592 22.4851 15.8618 22.4851 15.4244ZM23.6373 15.4244C23.6373 15.7071 23.6613 15.9685 23.7093 16.2085C23.7573 16.4432 23.8293 16.6459 23.9254 16.8166C24.0267 16.9873 24.1547 17.1207 24.3094 17.2167C24.4641 17.3127 24.6481 17.3607 24.8615 17.3607C25.2509 17.3607 25.5522 17.2087 25.7656 16.9046C25.979 16.6006 26.0857 16.1072 26.0857 15.4244C26.0857 15.1524 26.0617 14.899 26.0136 14.6643C25.971 14.4296 25.9016 14.2243 25.8056 14.0482C25.7096 13.8722 25.5843 13.7362 25.4296 13.6402C25.2749 13.5388 25.0855 13.4882 24.8615 13.4882C24.4721 13.4882 24.1707 13.6455 23.9574 13.9602C23.744 14.2696 23.6373 14.7577 23.6373 15.4244Z" fill="white"/>
</svg>
