<svg width="30" height="30" viewBox="0 0 30 30" fill="none" xmlns="http://www.w3.org/2000/svg">
<circle cx="15" cy="15" r="15" fill="#1E4BC6"/>
<path d="M22.1437 16.8775C22.4511 16.4592 22.5985 16.0109 22.5797 15.5491C22.5609 15.0406 22.3476 14.6424 22.1719 14.3982C22.3758 13.8561 22.4542 13.0029 21.7735 12.3404C21.2748 11.8553 20.4279 11.6378 19.2547 11.698C18.4297 11.7382 17.7396 11.9021 17.7114 11.9088H17.7083C17.5514 11.9389 17.3852 11.9757 17.2158 12.0159C17.2033 11.8018 17.2378 11.2698 17.6079 10.0719C18.0471 8.64659 18.022 7.55583 17.5263 6.82643C17.0056 6.06023 16.1744 6 15.9297 6C15.6945 6 15.478 6.10372 15.3243 6.29444C14.9762 6.72606 15.0169 7.52238 15.0609 7.89042C14.6468 9.07486 13.4862 11.9791 12.5044 12.7854C12.4856 12.7988 12.4699 12.8156 12.4542 12.8323C12.1656 13.1568 11.9711 13.5082 11.8394 13.816C11.6543 13.7089 11.4442 13.6487 11.2183 13.6487H9.30489C8.58344 13.6487 8 14.2744 8 15.0406V20.4776C8 21.2472 8.58657 21.8695 9.30489 21.8695H11.2183C11.4975 21.8695 11.7578 21.7758 11.9711 21.6152L12.7083 21.7089C12.8212 21.7256 14.8287 21.9967 16.8896 21.9532C17.2629 21.9833 17.6142 22 17.9404 22C18.5019 22 18.9912 21.9532 19.399 21.8595C20.3588 21.642 21.0144 21.207 21.3469 20.568C21.601 20.0795 21.601 19.5943 21.5602 19.2865C22.1844 18.6842 22.2942 18.0184 22.2723 17.55C22.2597 17.279 22.2033 17.0481 22.1437 16.8775ZM9.30489 20.9661C9.05082 20.9661 8.84693 20.7453 8.84693 20.4776V15.0372C8.84693 14.7662 9.05395 14.5487 9.30489 14.5487H11.2183C11.4724 14.5487 11.6763 14.7696 11.6763 15.0372V20.4743C11.6763 20.7453 11.4693 20.9628 11.2183 20.9628H9.30489V20.9661ZM21.3407 16.486C21.2089 16.6332 21.1838 16.8574 21.2842 17.0314C21.2842 17.0347 21.4128 17.2689 21.4285 17.5901C21.4504 18.0284 21.2528 18.4166 20.8388 18.7478C20.6913 18.8683 20.6317 19.0757 20.6945 19.2631C20.6945 19.2664 20.8294 19.7081 20.6098 20.1263C20.3996 20.5278 19.9322 20.8156 19.2233 20.9762C18.6556 21.1066 17.8839 21.1301 16.9366 21.0498C16.9241 21.0498 16.9084 21.0498 16.8927 21.0498C14.8758 21.0966 12.8369 20.8156 12.8149 20.8122H12.8118L12.495 20.7721C12.5138 20.6784 12.5232 20.578 12.5232 20.4776V15.0372C12.5232 14.8933 12.5013 14.7528 12.4636 14.6223C12.5201 14.3982 12.6769 13.8996 13.0471 13.4747C14.4555 12.2836 15.8325 8.26516 15.8921 8.09118C15.9172 8.02091 15.9235 7.94396 15.9109 7.867C15.8576 7.49226 15.8764 7.03388 15.9517 6.8967C16.1179 6.90004 16.5665 6.95023 16.8363 7.34839C17.1562 7.82016 17.1437 8.66332 16.7986 9.78084C16.2716 11.4839 16.2277 12.3806 16.6449 12.7754C16.8519 12.9728 17.128 12.9829 17.3287 12.9059C17.5201 12.8591 17.702 12.8189 17.8745 12.7888C17.8871 12.7854 17.9028 12.7821 17.9153 12.7788C18.8783 12.5546 20.6035 12.4174 21.2026 12.9996C21.7108 13.4948 21.3501 14.1506 21.3093 14.2208C21.1932 14.4082 21.2277 14.6524 21.3846 14.803C21.3877 14.8064 21.7171 15.1376 21.7327 15.5826C21.7453 15.8804 21.6136 16.1849 21.3407 16.486Z" fill="#FFE600"/>
</svg>
