<svg width="30" height="30" viewBox="0 0 30 30" fill="none" xmlns="http://www.w3.org/2000/svg">
<circle cx="15" cy="15" r="15" fill="#066CBE"/>
<path d="M16.5433 7.34774C16.2631 6.98515 16.0191 6.69465 15.818 6.4843C15.5321 6.18531 15.2956 6 15 6C14.7045 6 14.468 6.18531 14.1821 6.48426C13.981 6.69461 13.737 6.98511 13.4568 7.34774C12.8654 8.11311 12.202 9.08283 11.5888 10.0781C10.6219 11.6476 9 14.5588 9 16.4235C9 19.7319 11.6916 22.4235 15 22.4235C18.3084 22.4235 21 19.7319 21 16.4235C21 14.5588 19.3781 11.6476 18.4112 10.0781C17.7981 9.08283 17.1347 8.11315 16.5433 7.34774ZM15 21.2295C12.35 21.2295 10.1941 19.0736 10.1941 16.4235C10.1941 15.3302 11.0085 13.3514 12.4285 10.9948C13.495 9.22488 14.5198 7.87777 15 7.35546C15.4802 7.87773 16.5051 9.22484 17.5716 10.9948C18.9916 13.3515 19.806 15.3302 19.806 16.4235C19.806 19.0736 17.65 21.2295 15 21.2295Z" fill="white"/>
</svg>
